ISO-10303-21;
HEADER;
/* Generated by software containing ST-Developer
 * from STEP Tools, Inc. (www.steptools.com) 
 */
/* OPTION: strings as raw bytes, not using required /X/ escapes */

FILE_DESCRIPTION(
/* description */ ('Unknown'),
/* implementation_level */ '2;1');

FILE_NAME(
/* name */ 'RAD-A5723_40',
/* time_stamp */ '2023-11-02T14:02:25+02:00',
/* author */ ('Unknown'),
/* organization */ ('Unknown'),
/* preprocessor_version */ 'ST-DEVELOPER v18.102',
/* originating_system */ 'Solid Edge',
/* authorisation */ 'Unknown');

FILE_SCHEMA (('AUTOMOTIVE_DESIGN {1 0 10303 214 3 1 1}'));
ENDSEC;

DATA;
#10=PROPERTY_DEFINITION_REPRESENTATION(#14,#12);
#11=PROPERTY_DEFINITION_REPRESENTATION(#15,#13);
#12=REPRESENTATION('',(#16),#1995);
#13=REPRESENTATION('',(#17),#1995);
#14=PROPERTY_DEFINITION('pmi validation property','',#2000);
#15=PROPERTY_DEFINITION('pmi validation property','',#2000);
#16=VALUE_REPRESENTATION_ITEM('number of annotations',COUNT_MEASURE(0.));
#17=VALUE_REPRESENTATION_ITEM('number of views',COUNT_MEASURE(0.));
#18=SHAPE_REPRESENTATION_RELATIONSHIP('','',#1229,#19);
#19=ADVANCED_BREP_SHAPE_REPRESENTATION('',(#1227),#1995);
#20=PLANE('',#1234);
#21=PLANE('',#1235);
#22=PLANE('',#1236);
#23=PLANE('',#1237);
#24=PLANE('',#1238);
#25=PLANE('',#1239);
#26=PLANE('',#1240);
#27=PLANE('',#1244);
#28=PLANE('',#1248);
#29=PLANE('',#1249);
#30=PLANE('',#1250);
#31=PLANE('',#1251);
#32=PLANE('',#1252);
#33=PLANE('',#1256);
#34=PLANE('',#1260);
#35=PLANE('',#1261);
#36=PLANE('',#1262);
#37=PLANE('',#1263);
#38=PLANE('',#1264);
#39=PLANE('',#1268);
#40=PLANE('',#1272);
#41=PLANE('',#1273);
#42=PLANE('',#1274);
#43=PLANE('',#1275);
#44=PLANE('',#1276);
#45=PLANE('',#1280);
#46=PLANE('',#1284);
#47=PLANE('',#1285);
#48=PLANE('',#1286);
#49=PLANE('',#1287);
#50=PLANE('',#1288);
#51=PLANE('',#1292);
#52=PLANE('',#1296);
#53=PLANE('',#1297);
#54=PLANE('',#1298);
#55=PLANE('',#1299);
#56=PLANE('',#1300);
#57=PLANE('',#1304);
#58=PLANE('',#1308);
#59=PLANE('',#1309);
#60=PLANE('',#1310);
#61=PLANE('',#1311);
#62=PLANE('',#1312);
#63=PLANE('',#1316);
#64=PLANE('',#1317);
#65=PLANE('',#1318);
#66=LINE('',#1648,#212);
#67=LINE('',#1652,#213);
#68=LINE('',#1654,#214);
#69=LINE('',#1656,#215);
#70=LINE('',#1658,#216);
#71=LINE('',#1660,#217);
#72=LINE('',#1662,#218);
#73=LINE('',#1664,#219);
#74=LINE('',#1666,#220);
#75=LINE('',#1668,#221);
#76=LINE('',#1670,#222);
#77=LINE('',#1672,#223);
#78=LINE('',#1674,#224);
#79=LINE('',#1676,#225);
#80=LINE('',#1678,#226);
#81=LINE('',#1680,#227);
#82=LINE('',#1682,#228);
#83=LINE('',#1684,#229);
#84=LINE('',#1686,#230);
#85=LINE('',#1688,#231);
#86=LINE('',#1690,#232);
#87=LINE('',#1692,#233);
#88=LINE('',#1694,#234);
#89=LINE('',#1700,#235);
#90=LINE('',#1702,#236);
#91=LINE('',#1704,#237);
#92=LINE('',#1706,#238);
#93=LINE('',#1712,#239);
#94=LINE('',#1714,#240);
#95=LINE('',#1716,#241);
#96=LINE('',#1718,#242);
#97=LINE('',#1720,#243);
#98=LINE('',#1722,#244);
#99=LINE('',#1724,#245);
#100=LINE('',#1726,#246);
#101=LINE('',#1728,#247);
#102=LINE('',#1730,#248);
#103=LINE('',#1732,#249);
#104=LINE('',#1734,#250);
#105=LINE('',#1736,#251);
#106=LINE('',#1738,#252);
#107=LINE('',#1740,#253);
#108=LINE('',#1742,#254);
#109=LINE('',#1748,#255);
#110=LINE('',#1750,#256);
#111=LINE('',#1752,#257);
#112=LINE('',#1754,#258);
#113=LINE('',#1760,#259);
#114=LINE('',#1762,#260);
#115=LINE('',#1764,#261);
#116=LINE('',#1766,#262);
#117=LINE('',#1768,#263);
#118=LINE('',#1770,#264);
#119=LINE('',#1772,#265);
#120=LINE('',#1774,#266);
#121=LINE('',#1776,#267);
#122=LINE('',#1778,#268);
#123=LINE('',#1780,#269);
#124=LINE('',#1782,#270);
#125=LINE('',#1784,#271);
#126=LINE('',#1786,#272);
#127=LINE('',#1788,#273);
#128=LINE('',#1790,#274);
#129=LINE('',#1796,#275);
#130=LINE('',#1798,#276);
#131=LINE('',#1800,#277);
#132=LINE('',#1802,#278);
#133=LINE('',#1808,#279);
#134=LINE('',#1810,#280);
#135=LINE('',#1812,#281);
#136=LINE('',#1814,#282);
#137=LINE('',#1816,#283);
#138=LINE('',#1818,#284);
#139=LINE('',#1820,#285);
#140=LINE('',#1822,#286);
#141=LINE('',#1824,#287);
#142=LINE('',#1826,#288);
#143=LINE('',#1828,#289);
#144=LINE('',#1830,#290);
#145=LINE('',#1832,#291);
#146=LINE('',#1834,#292);
#147=LINE('',#1836,#293);
#148=LINE('',#1838,#294);
#149=LINE('',#1844,#295);
#150=LINE('',#1846,#296);
#151=LINE('',#1848,#297);
#152=LINE('',#1850,#298);
#153=LINE('',#1856,#299);
#154=LINE('',#1858,#300);
#155=LINE('',#1860,#301);
#156=LINE('',#1862,#302);
#157=LINE('',#1864,#303);
#158=LINE('',#1866,#304);
#159=LINE('',#1868,#305);
#160=LINE('',#1870,#306);
#161=LINE('',#1872,#307);
#162=LINE('',#1874,#308);
#163=LINE('',#1876,#309);
#164=LINE('',#1878,#310);
#165=LINE('',#1880,#311);
#166=LINE('',#1882,#312);
#167=LINE('',#1884,#313);
#168=LINE('',#1886,#314);
#169=LINE('',#1892,#315);
#170=LINE('',#1894,#316);
#171=LINE('',#1896,#317);
#172=LINE('',#1898,#318);
#173=LINE('',#1904,#319);
#174=LINE('',#1906,#320);
#175=LINE('',#1908,#321);
#176=LINE('',#1910,#322);
#177=LINE('',#1912,#323);
#178=LINE('',#1914,#324);
#179=LINE('',#1916,#325);
#180=LINE('',#1918,#326);
#181=LINE('',#1920,#327);
#182=LINE('',#1922,#328);
#183=LINE('',#1924,#329);
#184=LINE('',#1926,#330);
#185=LINE('',#1928,#331);
#186=LINE('',#1930,#332);
#187=LINE('',#1932,#333);
#188=LINE('',#1934,#334);
#189=LINE('',#1940,#335);
#190=LINE('',#1942,#336);
#191=LINE('',#1944,#337);
#192=LINE('',#1946,#338);
#193=LINE('',#1952,#339);
#194=LINE('',#1954,#340);
#195=LINE('',#1956,#341);
#196=LINE('',#1958,#342);
#197=LINE('',#1960,#343);
#198=LINE('',#1962,#344);
#199=LINE('',#1964,#345);
#200=LINE('',#1966,#346);
#201=LINE('',#1968,#347);
#202=LINE('',#1970,#348);
#203=LINE('',#1972,#349);
#204=LINE('',#1974,#350);
#205=LINE('',#1976,#351);
#206=LINE('',#1978,#352);
#207=LINE('',#1980,#353);
#208=LINE('',#1982,#354);
#209=LINE('',#1988,#355);
#210=LINE('',#1990,#356);
#211=LINE('',#1991,#357);
#212=VECTOR('',#1325,1000.);
#213=VECTOR('',#1328,1000.);
#214=VECTOR('',#1331,1000.);
#215=VECTOR('',#1332,1000.);
#216=VECTOR('',#1333,1000.);
#217=VECTOR('',#1336,1000.);
#218=VECTOR('',#1337,1000.);
#219=VECTOR('',#1338,1000.);
#220=VECTOR('',#1341,1000.);
#221=VECTOR('',#1342,1000.);
#222=VECTOR('',#1343,1000.);
#223=VECTOR('',#1346,1000.);
#224=VECTOR('',#1347,1000.);
#225=VECTOR('',#1348,1000.);
#226=VECTOR('',#1351,1000.);
#227=VECTOR('',#1352,1000.);
#228=VECTOR('',#1353,1000.);
#229=VECTOR('',#1356,1000.);
#230=VECTOR('',#1357,1000.);
#231=VECTOR('',#1358,1000.);
#232=VECTOR('',#1361,1000.);
#233=VECTOR('',#1362,1000.);
#234=VECTOR('',#1363,1000.);
#235=VECTOR('',#1370,1000.);
#236=VECTOR('',#1373,1000.);
#237=VECTOR('',#1374,1000.);
#238=VECTOR('',#1375,1000.);
#239=VECTOR('',#1382,1000.);
#240=VECTOR('',#1385,1000.);
#241=VECTOR('',#1386,1000.);
#242=VECTOR('',#1387,1000.);
#243=VECTOR('',#1390,1000.);
#244=VECTOR('',#1391,1000.);
#245=VECTOR('',#1392,1000.);
#246=VECTOR('',#1395,1000.);
#247=VECTOR('',#1396,1000.);
#248=VECTOR('',#1397,1000.);
#249=VECTOR('',#1400,1000.);
#250=VECTOR('',#1401,1000.);
#251=VECTOR('',#1402,1000.);
#252=VECTOR('',#1405,1000.);
#253=VECTOR('',#1406,1000.);
#254=VECTOR('',#1407,1000.);
#255=VECTOR('',#1414,1000.);
#256=VECTOR('',#1417,1000.);
#257=VECTOR('',#1418,1000.);
#258=VECTOR('',#1419,1000.);
#259=VECTOR('',#1426,1000.);
#260=VECTOR('',#1429,1000.);
#261=VECTOR('',#1430,1000.);
#262=VECTOR('',#1431,1000.);
#263=VECTOR('',#1434,1000.);
#264=VECTOR('',#1435,1000.);
#265=VECTOR('',#1436,1000.);
#266=VECTOR('',#1439,1000.);
#267=VECTOR('',#1440,1000.);
#268=VECTOR('',#1441,1000.);
#269=VECTOR('',#1444,1000.);
#270=VECTOR('',#1445,1000.);
#271=VECTOR('',#1446,1000.);
#272=VECTOR('',#1449,1000.);
#273=VECTOR('',#1450,1000.);
#274=VECTOR('',#1451,1000.);
#275=VECTOR('',#1458,1000.);
#276=VECTOR('',#1461,1000.);
#277=VECTOR('',#1462,1000.);
#278=VECTOR('',#1463,1000.);
#279=VECTOR('',#1470,1000.);
#280=VECTOR('',#1473,1000.);
#281=VECTOR('',#1474,1000.);
#282=VECTOR('',#1475,1000.);
#283=VECTOR('',#1478,1000.);
#284=VECTOR('',#1479,1000.);
#285=VECTOR('',#1480,1000.);
#286=VECTOR('',#1483,1000.);
#287=VECTOR('',#1484,1000.);
#288=VECTOR('',#1485,1000.);
#289=VECTOR('',#1488,1000.);
#290=VECTOR('',#1489,1000.);
#291=VECTOR('',#1490,1000.);
#292=VECTOR('',#1493,1000.);
#293=VECTOR('',#1494,1000.);
#294=VECTOR('',#1495,1000.);
#295=VECTOR('',#1502,1000.);
#296=VECTOR('',#1505,1000.);
#297=VECTOR('',#1506,1000.);
#298=VECTOR('',#1507,1000.);
#299=VECTOR('',#1514,1000.);
#300=VECTOR('',#1517,1000.);
#301=VECTOR('',#1518,1000.);
#302=VECTOR('',#1519,1000.);
#303=VECTOR('',#1522,1000.);
#304=VECTOR('',#1523,1000.);
#305=VECTOR('',#1524,1000.);
#306=VECTOR('',#1527,1000.);
#307=VECTOR('',#1528,1000.);
#308=VECTOR('',#1529,1000.);
#309=VECTOR('',#1532,1000.);
#310=VECTOR('',#1533,1000.);
#311=VECTOR('',#1534,1000.);
#312=VECTOR('',#1537,1000.);
#313=VECTOR('',#1538,1000.);
#314=VECTOR('',#1539,1000.);
#315=VECTOR('',#1546,1000.);
#316=VECTOR('',#1549,1000.);
#317=VECTOR('',#1550,1000.);
#318=VECTOR('',#1551,1000.);
#319=VECTOR('',#1558,1000.);
#320=VECTOR('',#1561,1000.);
#321=VECTOR('',#1562,1000.);
#322=VECTOR('',#1563,1000.);
#323=VECTOR('',#1566,1000.);
#324=VECTOR('',#1567,1000.);
#325=VECTOR('',#1568,1000.);
#326=VECTOR('',#1571,1000.);
#327=VECTOR('',#1572,1000.);
#328=VECTOR('',#1573,1000.);
#329=VECTOR('',#1576,1000.);
#330=VECTOR('',#1577,1000.);
#331=VECTOR('',#1578,1000.);
#332=VECTOR('',#1581,1000.);
#333=VECTOR('',#1582,1000.);
#334=VECTOR('',#1583,1000.);
#335=VECTOR('',#1590,1000.);
#336=VECTOR('',#1593,1000.);
#337=VECTOR('',#1594,1000.);
#338=VECTOR('',#1595,1000.);
#339=VECTOR('',#1602,1000.);
#340=VECTOR('',#1605,1000.);
#341=VECTOR('',#1606,1000.);
#342=VECTOR('',#1607,1000.);
#343=VECTOR('',#1610,1000.);
#344=VECTOR('',#1611,1000.);
#345=VECTOR('',#1612,1000.);
#346=VECTOR('',#1615,1000.);
#347=VECTOR('',#1616,1000.);
#348=VECTOR('',#1617,1000.);
#349=VECTOR('',#1620,1000.);
#350=VECTOR('',#1621,1000.);
#351=VECTOR('',#1622,1000.);
#352=VECTOR('',#1625,1000.);
#353=VECTOR('',#1626,1000.);
#354=VECTOR('',#1627,1000.);
#355=VECTOR('',#1634,1000.);
#356=VECTOR('',#1637,1000.);
#357=VECTOR('',#1638,1000.);
#358=ORIENTED_EDGE('',*,*,#706,.F.);
#359=ORIENTED_EDGE('',*,*,#707,.F.);
#360=ORIENTED_EDGE('',*,*,#708,.T.);
#361=ORIENTED_EDGE('',*,*,#709,.T.);
#362=ORIENTED_EDGE('',*,*,#710,.F.);
#363=ORIENTED_EDGE('',*,*,#709,.F.);
#364=ORIENTED_EDGE('',*,*,#711,.T.);
#365=ORIENTED_EDGE('',*,*,#712,.T.);
#366=ORIENTED_EDGE('',*,*,#713,.F.);
#367=ORIENTED_EDGE('',*,*,#712,.F.);
#368=ORIENTED_EDGE('',*,*,#714,.T.);
#369=ORIENTED_EDGE('',*,*,#715,.T.);
#370=ORIENTED_EDGE('',*,*,#716,.F.);
#371=ORIENTED_EDGE('',*,*,#715,.F.);
#372=ORIENTED_EDGE('',*,*,#717,.T.);
#373=ORIENTED_EDGE('',*,*,#718,.T.);
#374=ORIENTED_EDGE('',*,*,#719,.F.);
#375=ORIENTED_EDGE('',*,*,#718,.F.);
#376=ORIENTED_EDGE('',*,*,#720,.T.);
#377=ORIENTED_EDGE('',*,*,#721,.T.);
#378=ORIENTED_EDGE('',*,*,#722,.F.);
#379=ORIENTED_EDGE('',*,*,#721,.F.);
#380=ORIENTED_EDGE('',*,*,#723,.T.);
#381=ORIENTED_EDGE('',*,*,#724,.T.);
#382=ORIENTED_EDGE('',*,*,#725,.F.);
#383=ORIENTED_EDGE('',*,*,#724,.F.);
#384=ORIENTED_EDGE('',*,*,#726,.T.);
#385=ORIENTED_EDGE('',*,*,#727,.T.);
#386=ORIENTED_EDGE('',*,*,#728,.F.);
#387=ORIENTED_EDGE('',*,*,#727,.F.);
#388=ORIENTED_EDGE('',*,*,#729,.T.);
#389=ORIENTED_EDGE('',*,*,#730,.T.);
#390=ORIENTED_EDGE('',*,*,#731,.F.);
#391=ORIENTED_EDGE('',*,*,#730,.F.);
#392=ORIENTED_EDGE('',*,*,#732,.T.);
#393=ORIENTED_EDGE('',*,*,#733,.T.);
#394=ORIENTED_EDGE('',*,*,#734,.F.);
#395=ORIENTED_EDGE('',*,*,#733,.F.);
#396=ORIENTED_EDGE('',*,*,#735,.T.);
#397=ORIENTED_EDGE('',*,*,#736,.T.);
#398=ORIENTED_EDGE('',*,*,#737,.F.);
#399=ORIENTED_EDGE('',*,*,#736,.F.);
#400=ORIENTED_EDGE('',*,*,#738,.T.);
#401=ORIENTED_EDGE('',*,*,#739,.T.);
#402=ORIENTED_EDGE('',*,*,#740,.F.);
#403=ORIENTED_EDGE('',*,*,#739,.F.);
#404=ORIENTED_EDGE('',*,*,#741,.T.);
#405=ORIENTED_EDGE('',*,*,#742,.T.);
#406=ORIENTED_EDGE('',*,*,#743,.F.);
#407=ORIENTED_EDGE('',*,*,#742,.F.);
#408=ORIENTED_EDGE('',*,*,#744,.T.);
#409=ORIENTED_EDGE('',*,*,#745,.T.);
#410=ORIENTED_EDGE('',*,*,#746,.F.);
#411=ORIENTED_EDGE('',*,*,#745,.F.);
#412=ORIENTED_EDGE('',*,*,#747,.T.);
#413=ORIENTED_EDGE('',*,*,#748,.T.);
#414=ORIENTED_EDGE('',*,*,#749,.F.);
#415=ORIENTED_EDGE('',*,*,#748,.F.);
#416=ORIENTED_EDGE('',*,*,#750,.T.);
#417=ORIENTED_EDGE('',*,*,#751,.T.);
#418=ORIENTED_EDGE('',*,*,#752,.F.);
#419=ORIENTED_EDGE('',*,*,#751,.F.);
#420=ORIENTED_EDGE('',*,*,#753,.T.);
#421=ORIENTED_EDGE('',*,*,#754,.T.);
#422=ORIENTED_EDGE('',*,*,#755,.F.);
#423=ORIENTED_EDGE('',*,*,#754,.F.);
#424=ORIENTED_EDGE('',*,*,#756,.T.);
#425=ORIENTED_EDGE('',*,*,#757,.T.);
#426=ORIENTED_EDGE('',*,*,#758,.F.);
#427=ORIENTED_EDGE('',*,*,#757,.F.);
#428=ORIENTED_EDGE('',*,*,#759,.T.);
#429=ORIENTED_EDGE('',*,*,#760,.T.);
#430=ORIENTED_EDGE('',*,*,#761,.F.);
#431=ORIENTED_EDGE('',*,*,#760,.F.);
#432=ORIENTED_EDGE('',*,*,#762,.T.);
#433=ORIENTED_EDGE('',*,*,#763,.T.);
#434=ORIENTED_EDGE('',*,*,#764,.F.);
#435=ORIENTED_EDGE('',*,*,#763,.F.);
#436=ORIENTED_EDGE('',*,*,#765,.T.);
#437=ORIENTED_EDGE('',*,*,#766,.T.);
#438=ORIENTED_EDGE('',*,*,#767,.F.);
#439=ORIENTED_EDGE('',*,*,#766,.F.);
#440=ORIENTED_EDGE('',*,*,#768,.T.);
#441=ORIENTED_EDGE('',*,*,#769,.T.);
#442=ORIENTED_EDGE('',*,*,#770,.F.);
#443=ORIENTED_EDGE('',*,*,#769,.F.);
#444=ORIENTED_EDGE('',*,*,#771,.T.);
#445=ORIENTED_EDGE('',*,*,#772,.T.);
#446=ORIENTED_EDGE('',*,*,#773,.F.);
#447=ORIENTED_EDGE('',*,*,#772,.F.);
#448=ORIENTED_EDGE('',*,*,#774,.T.);
#449=ORIENTED_EDGE('',*,*,#775,.T.);
#450=ORIENTED_EDGE('',*,*,#776,.F.);
#451=ORIENTED_EDGE('',*,*,#775,.F.);
#452=ORIENTED_EDGE('',*,*,#777,.T.);
#453=ORIENTED_EDGE('',*,*,#778,.T.);
#454=ORIENTED_EDGE('',*,*,#779,.F.);
#455=ORIENTED_EDGE('',*,*,#778,.F.);
#456=ORIENTED_EDGE('',*,*,#780,.T.);
#457=ORIENTED_EDGE('',*,*,#781,.T.);
#458=ORIENTED_EDGE('',*,*,#782,.F.);
#459=ORIENTED_EDGE('',*,*,#781,.F.);
#460=ORIENTED_EDGE('',*,*,#783,.T.);
#461=ORIENTED_EDGE('',*,*,#784,.T.);
#462=ORIENTED_EDGE('',*,*,#785,.F.);
#463=ORIENTED_EDGE('',*,*,#784,.F.);
#464=ORIENTED_EDGE('',*,*,#786,.T.);
#465=ORIENTED_EDGE('',*,*,#787,.T.);
#466=ORIENTED_EDGE('',*,*,#788,.F.);
#467=ORIENTED_EDGE('',*,*,#787,.F.);
#468=ORIENTED_EDGE('',*,*,#789,.T.);
#469=ORIENTED_EDGE('',*,*,#790,.T.);
#470=ORIENTED_EDGE('',*,*,#791,.F.);
#471=ORIENTED_EDGE('',*,*,#790,.F.);
#472=ORIENTED_EDGE('',*,*,#792,.T.);
#473=ORIENTED_EDGE('',*,*,#793,.T.);
#474=ORIENTED_EDGE('',*,*,#794,.F.);
#475=ORIENTED_EDGE('',*,*,#793,.F.);
#476=ORIENTED_EDGE('',*,*,#795,.T.);
#477=ORIENTED_EDGE('',*,*,#796,.T.);
#478=ORIENTED_EDGE('',*,*,#797,.F.);
#479=ORIENTED_EDGE('',*,*,#796,.F.);
#480=ORIENTED_EDGE('',*,*,#798,.T.);
#481=ORIENTED_EDGE('',*,*,#799,.T.);
#482=ORIENTED_EDGE('',*,*,#800,.F.);
#483=ORIENTED_EDGE('',*,*,#799,.F.);
#484=ORIENTED_EDGE('',*,*,#801,.T.);
#485=ORIENTED_EDGE('',*,*,#802,.T.);
#486=ORIENTED_EDGE('',*,*,#803,.F.);
#487=ORIENTED_EDGE('',*,*,#802,.F.);
#488=ORIENTED_EDGE('',*,*,#804,.T.);
#489=ORIENTED_EDGE('',*,*,#805,.T.);
#490=ORIENTED_EDGE('',*,*,#806,.F.);
#491=ORIENTED_EDGE('',*,*,#805,.F.);
#492=ORIENTED_EDGE('',*,*,#807,.T.);
#493=ORIENTED_EDGE('',*,*,#808,.T.);
#494=ORIENTED_EDGE('',*,*,#809,.F.);
#495=ORIENTED_EDGE('',*,*,#808,.F.);
#496=ORIENTED_EDGE('',*,*,#810,.T.);
#497=ORIENTED_EDGE('',*,*,#811,.T.);
#498=ORIENTED_EDGE('',*,*,#812,.F.);
#499=ORIENTED_EDGE('',*,*,#811,.F.);
#500=ORIENTED_EDGE('',*,*,#813,.T.);
#501=ORIENTED_EDGE('',*,*,#814,.T.);
#502=ORIENTED_EDGE('',*,*,#815,.F.);
#503=ORIENTED_EDGE('',*,*,#814,.F.);
#504=ORIENTED_EDGE('',*,*,#816,.T.);
#505=ORIENTED_EDGE('',*,*,#817,.T.);
#506=ORIENTED_EDGE('',*,*,#818,.F.);
#507=ORIENTED_EDGE('',*,*,#817,.F.);
#508=ORIENTED_EDGE('',*,*,#819,.T.);
#509=ORIENTED_EDGE('',*,*,#820,.T.);
#510=ORIENTED_EDGE('',*,*,#821,.F.);
#511=ORIENTED_EDGE('',*,*,#820,.F.);
#512=ORIENTED_EDGE('',*,*,#822,.T.);
#513=ORIENTED_EDGE('',*,*,#823,.T.);
#514=ORIENTED_EDGE('',*,*,#824,.F.);
#515=ORIENTED_EDGE('',*,*,#823,.F.);
#516=ORIENTED_EDGE('',*,*,#825,.T.);
#517=ORIENTED_EDGE('',*,*,#826,.T.);
#518=ORIENTED_EDGE('',*,*,#827,.F.);
#519=ORIENTED_EDGE('',*,*,#826,.F.);
#520=ORIENTED_EDGE('',*,*,#828,.T.);
#521=ORIENTED_EDGE('',*,*,#829,.T.);
#522=ORIENTED_EDGE('',*,*,#830,.F.);
#523=ORIENTED_EDGE('',*,*,#829,.F.);
#524=ORIENTED_EDGE('',*,*,#831,.T.);
#525=ORIENTED_EDGE('',*,*,#832,.T.);
#526=ORIENTED_EDGE('',*,*,#833,.F.);
#527=ORIENTED_EDGE('',*,*,#832,.F.);
#528=ORIENTED_EDGE('',*,*,#834,.T.);
#529=ORIENTED_EDGE('',*,*,#835,.T.);
#530=ORIENTED_EDGE('',*,*,#836,.F.);
#531=ORIENTED_EDGE('',*,*,#835,.F.);
#532=ORIENTED_EDGE('',*,*,#837,.T.);
#533=ORIENTED_EDGE('',*,*,#838,.T.);
#534=ORIENTED_EDGE('',*,*,#839,.F.);
#535=ORIENTED_EDGE('',*,*,#838,.F.);
#536=ORIENTED_EDGE('',*,*,#840,.T.);
#537=ORIENTED_EDGE('',*,*,#841,.T.);
#538=ORIENTED_EDGE('',*,*,#842,.F.);
#539=ORIENTED_EDGE('',*,*,#841,.F.);
#540=ORIENTED_EDGE('',*,*,#843,.T.);
#541=ORIENTED_EDGE('',*,*,#844,.T.);
#542=ORIENTED_EDGE('',*,*,#845,.F.);
#543=ORIENTED_EDGE('',*,*,#844,.F.);
#544=ORIENTED_EDGE('',*,*,#846,.T.);
#545=ORIENTED_EDGE('',*,*,#847,.T.);
#546=ORIENTED_EDGE('',*,*,#848,.F.);
#547=ORIENTED_EDGE('',*,*,#847,.F.);
#548=ORIENTED_EDGE('',*,*,#849,.T.);
#549=ORIENTED_EDGE('',*,*,#850,.T.);
#550=ORIENTED_EDGE('',*,*,#851,.F.);
#551=ORIENTED_EDGE('',*,*,#850,.F.);
#552=ORIENTED_EDGE('',*,*,#852,.T.);
#553=ORIENTED_EDGE('',*,*,#853,.T.);
#554=ORIENTED_EDGE('',*,*,#854,.F.);
#555=ORIENTED_EDGE('',*,*,#853,.F.);
#556=ORIENTED_EDGE('',*,*,#855,.T.);
#557=ORIENTED_EDGE('',*,*,#856,.T.);
#558=ORIENTED_EDGE('',*,*,#857,.F.);
#559=ORIENTED_EDGE('',*,*,#856,.F.);
#560=ORIENTED_EDGE('',*,*,#858,.T.);
#561=ORIENTED_EDGE('',*,*,#859,.T.);
#562=ORIENTED_EDGE('',*,*,#860,.F.);
#563=ORIENTED_EDGE('',*,*,#859,.F.);
#564=ORIENTED_EDGE('',*,*,#861,.T.);
#565=ORIENTED_EDGE('',*,*,#862,.T.);
#566=ORIENTED_EDGE('',*,*,#863,.F.);
#567=ORIENTED_EDGE('',*,*,#862,.F.);
#568=ORIENTED_EDGE('',*,*,#864,.T.);
#569=ORIENTED_EDGE('',*,*,#865,.T.);
#570=ORIENTED_EDGE('',*,*,#866,.F.);
#571=ORIENTED_EDGE('',*,*,#865,.F.);
#572=ORIENTED_EDGE('',*,*,#867,.T.);
#573=ORIENTED_EDGE('',*,*,#868,.T.);
#574=ORIENTED_EDGE('',*,*,#869,.F.);
#575=ORIENTED_EDGE('',*,*,#868,.F.);
#576=ORIENTED_EDGE('',*,*,#870,.T.);
#577=ORIENTED_EDGE('',*,*,#871,.T.);
#578=ORIENTED_EDGE('',*,*,#872,.F.);
#579=ORIENTED_EDGE('',*,*,#871,.F.);
#580=ORIENTED_EDGE('',*,*,#873,.T.);
#581=ORIENTED_EDGE('',*,*,#874,.T.);
#582=ORIENTED_EDGE('',*,*,#875,.F.);
#583=ORIENTED_EDGE('',*,*,#874,.F.);
#584=ORIENTED_EDGE('',*,*,#876,.T.);
#585=ORIENTED_EDGE('',*,*,#877,.T.);
#586=ORIENTED_EDGE('',*,*,#878,.F.);
#587=ORIENTED_EDGE('',*,*,#877,.F.);
#588=ORIENTED_EDGE('',*,*,#879,.T.);
#589=ORIENTED_EDGE('',*,*,#707,.T.);
#590=ORIENTED_EDGE('',*,*,#708,.F.);
#591=ORIENTED_EDGE('',*,*,#879,.F.);
#592=ORIENTED_EDGE('',*,*,#876,.F.);
#593=ORIENTED_EDGE('',*,*,#873,.F.);
#594=ORIENTED_EDGE('',*,*,#870,.F.);
#595=ORIENTED_EDGE('',*,*,#867,.F.);
#596=ORIENTED_EDGE('',*,*,#864,.F.);
#597=ORIENTED_EDGE('',*,*,#861,.F.);
#598=ORIENTED_EDGE('',*,*,#858,.F.);
#599=ORIENTED_EDGE('',*,*,#855,.F.);
#600=ORIENTED_EDGE('',*,*,#852,.F.);
#601=ORIENTED_EDGE('',*,*,#849,.F.);
#602=ORIENTED_EDGE('',*,*,#846,.F.);
#603=ORIENTED_EDGE('',*,*,#843,.F.);
#604=ORIENTED_EDGE('',*,*,#840,.F.);
#605=ORIENTED_EDGE('',*,*,#837,.F.);
#606=ORIENTED_EDGE('',*,*,#834,.F.);
#607=ORIENTED_EDGE('',*,*,#831,.F.);
#608=ORIENTED_EDGE('',*,*,#828,.F.);
#609=ORIENTED_EDGE('',*,*,#825,.F.);
#610=ORIENTED_EDGE('',*,*,#822,.F.);
#611=ORIENTED_EDGE('',*,*,#819,.F.);
#612=ORIENTED_EDGE('',*,*,#816,.F.);
#613=ORIENTED_EDGE('',*,*,#813,.F.);
#614=ORIENTED_EDGE('',*,*,#810,.F.);
#615=ORIENTED_EDGE('',*,*,#807,.F.);
#616=ORIENTED_EDGE('',*,*,#804,.F.);
#617=ORIENTED_EDGE('',*,*,#801,.F.);
#618=ORIENTED_EDGE('',*,*,#798,.F.);
#619=ORIENTED_EDGE('',*,*,#795,.F.);
#620=ORIENTED_EDGE('',*,*,#792,.F.);
#621=ORIENTED_EDGE('',*,*,#789,.F.);
#622=ORIENTED_EDGE('',*,*,#786,.F.);
#623=ORIENTED_EDGE('',*,*,#783,.F.);
#624=ORIENTED_EDGE('',*,*,#780,.F.);
#625=ORIENTED_EDGE('',*,*,#777,.F.);
#626=ORIENTED_EDGE('',*,*,#774,.F.);
#627=ORIENTED_EDGE('',*,*,#771,.F.);
#628=ORIENTED_EDGE('',*,*,#768,.F.);
#629=ORIENTED_EDGE('',*,*,#765,.F.);
#630=ORIENTED_EDGE('',*,*,#762,.F.);
#631=ORIENTED_EDGE('',*,*,#759,.F.);
#632=ORIENTED_EDGE('',*,*,#756,.F.);
#633=ORIENTED_EDGE('',*,*,#753,.F.);
#634=ORIENTED_EDGE('',*,*,#750,.F.);
#635=ORIENTED_EDGE('',*,*,#747,.F.);
#636=ORIENTED_EDGE('',*,*,#744,.F.);
#637=ORIENTED_EDGE('',*,*,#741,.F.);
#638=ORIENTED_EDGE('',*,*,#738,.F.);
#639=ORIENTED_EDGE('',*,*,#735,.F.);
#640=ORIENTED_EDGE('',*,*,#732,.F.);
#641=ORIENTED_EDGE('',*,*,#729,.F.);
#642=ORIENTED_EDGE('',*,*,#726,.F.);
#643=ORIENTED_EDGE('',*,*,#723,.F.);
#644=ORIENTED_EDGE('',*,*,#720,.F.);
#645=ORIENTED_EDGE('',*,*,#717,.F.);
#646=ORIENTED_EDGE('',*,*,#714,.F.);
#647=ORIENTED_EDGE('',*,*,#711,.F.);
#648=ORIENTED_EDGE('',*,*,#706,.T.);
#649=ORIENTED_EDGE('',*,*,#710,.T.);
#650=ORIENTED_EDGE('',*,*,#713,.T.);
#651=ORIENTED_EDGE('',*,*,#716,.T.);
#652=ORIENTED_EDGE('',*,*,#719,.T.);
#653=ORIENTED_EDGE('',*,*,#722,.T.);
#654=ORIENTED_EDGE('',*,*,#725,.T.);
#655=ORIENTED_EDGE('',*,*,#728,.T.);
#656=ORIENTED_EDGE('',*,*,#731,.T.);
#657=ORIENTED_EDGE('',*,*,#734,.T.);
#658=ORIENTED_EDGE('',*,*,#737,.T.);
#659=ORIENTED_EDGE('',*,*,#740,.T.);
#660=ORIENTED_EDGE('',*,*,#743,.T.);
#661=ORIENTED_EDGE('',*,*,#746,.T.);
#662=ORIENTED_EDGE('',*,*,#749,.T.);
#663=ORIENTED_EDGE('',*,*,#752,.T.);
#664=ORIENTED_EDGE('',*,*,#755,.T.);
#665=ORIENTED_EDGE('',*,*,#758,.T.);
#666=ORIENTED_EDGE('',*,*,#761,.T.);
#667=ORIENTED_EDGE('',*,*,#764,.T.);
#668=ORIENTED_EDGE('',*,*,#767,.T.);
#669=ORIENTED_EDGE('',*,*,#770,.T.);
#670=ORIENTED_EDGE('',*,*,#773,.T.);
#671=ORIENTED_EDGE('',*,*,#776,.T.);
#672=ORIENTED_EDGE('',*,*,#779,.T.);
#673=ORIENTED_EDGE('',*,*,#782,.T.);
#674=ORIENTED_EDGE('',*,*,#785,.T.);
#675=ORIENTED_EDGE('',*,*,#788,.T.);
#676=ORIENTED_EDGE('',*,*,#791,.T.);
#677=ORIENTED_EDGE('',*,*,#794,.T.);
#678=ORIENTED_EDGE('',*,*,#797,.T.);
#679=ORIENTED_EDGE('',*,*,#800,.T.);
#680=ORIENTED_EDGE('',*,*,#803,.T.);
#681=ORIENTED_EDGE('',*,*,#806,.T.);
#682=ORIENTED_EDGE('',*,*,#809,.T.);
#683=ORIENTED_EDGE('',*,*,#812,.T.);
#684=ORIENTED_EDGE('',*,*,#815,.T.);
#685=ORIENTED_EDGE('',*,*,#818,.T.);
#686=ORIENTED_EDGE('',*,*,#821,.T.);
#687=ORIENTED_EDGE('',*,*,#824,.T.);
#688=ORIENTED_EDGE('',*,*,#827,.T.);
#689=ORIENTED_EDGE('',*,*,#830,.T.);
#690=ORIENTED_EDGE('',*,*,#833,.T.);
#691=ORIENTED_EDGE('',*,*,#836,.T.);
#692=ORIENTED_EDGE('',*,*,#839,.T.);
#693=ORIENTED_EDGE('',*,*,#842,.T.);
#694=ORIENTED_EDGE('',*,*,#845,.T.);
#695=ORIENTED_EDGE('',*,*,#848,.T.);
#696=ORIENTED_EDGE('',*,*,#851,.T.);
#697=ORIENTED_EDGE('',*,*,#854,.T.);
#698=ORIENTED_EDGE('',*,*,#857,.T.);
#699=ORIENTED_EDGE('',*,*,#860,.T.);
#700=ORIENTED_EDGE('',*,*,#863,.T.);
#701=ORIENTED_EDGE('',*,*,#866,.T.);
#702=ORIENTED_EDGE('',*,*,#869,.T.);
#703=ORIENTED_EDGE('',*,*,#872,.T.);
#704=ORIENTED_EDGE('',*,*,#875,.T.);
#705=ORIENTED_EDGE('',*,*,#878,.T.);
#706=EDGE_CURVE('',#880,#881,#996,.T.);
#707=EDGE_CURVE('',#882,#880,#66,.T.);
#708=EDGE_CURVE('',#882,#883,#997,.T.);
#709=EDGE_CURVE('',#883,#881,#67,.T.);
#710=EDGE_CURVE('',#881,#884,#68,.T.);
#711=EDGE_CURVE('',#883,#885,#69,.T.);
#712=EDGE_CURVE('',#885,#884,#70,.T.);
#713=EDGE_CURVE('',#884,#886,#71,.T.);
#714=EDGE_CURVE('',#885,#887,#72,.T.);
#715=EDGE_CURVE('',#887,#886,#73,.T.);
#716=EDGE_CURVE('',#886,#888,#74,.T.);
#717=EDGE_CURVE('',#887,#889,#75,.T.);
#718=EDGE_CURVE('',#889,#888,#76,.T.);
#719=EDGE_CURVE('',#888,#890,#77,.T.);
#720=EDGE_CURVE('',#889,#891,#78,.T.);
#721=EDGE_CURVE('',#891,#890,#79,.T.);
#722=EDGE_CURVE('',#890,#892,#80,.T.);
#723=EDGE_CURVE('',#891,#893,#81,.T.);
#724=EDGE_CURVE('',#893,#892,#82,.T.);
#725=EDGE_CURVE('',#892,#894,#83,.T.);
#726=EDGE_CURVE('',#893,#895,#84,.T.);
#727=EDGE_CURVE('',#895,#894,#85,.T.);
#728=EDGE_CURVE('',#894,#896,#86,.T.);
#729=EDGE_CURVE('',#895,#897,#87,.T.);
#730=EDGE_CURVE('',#897,#896,#88,.T.);
#731=EDGE_CURVE('',#896,#898,#998,.T.);
#732=EDGE_CURVE('',#897,#899,#999,.T.);
#733=EDGE_CURVE('',#899,#898,#89,.T.);
#734=EDGE_CURVE('',#898,#900,#90,.T.);
#735=EDGE_CURVE('',#899,#901,#91,.T.);
#736=EDGE_CURVE('',#901,#900,#92,.T.);
#737=EDGE_CURVE('',#900,#902,#1000,.T.);
#738=EDGE_CURVE('',#901,#903,#1001,.T.);
#739=EDGE_CURVE('',#903,#902,#93,.T.);
#740=EDGE_CURVE('',#902,#904,#94,.T.);
#741=EDGE_CURVE('',#903,#905,#95,.T.);
#742=EDGE_CURVE('',#905,#904,#96,.T.);
#743=EDGE_CURVE('',#904,#906,#97,.T.);
#744=EDGE_CURVE('',#905,#907,#98,.T.);
#745=EDGE_CURVE('',#907,#906,#99,.T.);
#746=EDGE_CURVE('',#906,#908,#100,.T.);
#747=EDGE_CURVE('',#907,#909,#101,.T.);
#748=EDGE_CURVE('',#909,#908,#102,.T.);
#749=EDGE_CURVE('',#908,#910,#103,.T.);
#750=EDGE_CURVE('',#909,#911,#104,.T.);
#751=EDGE_CURVE('',#911,#910,#105,.T.);
#752=EDGE_CURVE('',#910,#912,#106,.T.);
#753=EDGE_CURVE('',#911,#913,#107,.T.);
#754=EDGE_CURVE('',#913,#912,#108,.T.);
#755=EDGE_CURVE('',#912,#914,#1002,.T.);
#756=EDGE_CURVE('',#913,#915,#1003,.T.);
#757=EDGE_CURVE('',#915,#914,#109,.T.);
#758=EDGE_CURVE('',#914,#916,#110,.T.);
#759=EDGE_CURVE('',#915,#917,#111,.T.);
#760=EDGE_CURVE('',#917,#916,#112,.T.);
#761=EDGE_CURVE('',#916,#918,#1004,.T.);
#762=EDGE_CURVE('',#917,#919,#1005,.T.);
#763=EDGE_CURVE('',#919,#918,#113,.T.);
#764=EDGE_CURVE('',#918,#920,#114,.T.);
#765=EDGE_CURVE('',#919,#921,#115,.T.);
#766=EDGE_CURVE('',#921,#920,#116,.T.);
#767=EDGE_CURVE('',#920,#922,#117,.T.);
#768=EDGE_CURVE('',#921,#923,#118,.T.);
#769=EDGE_CURVE('',#923,#922,#119,.T.);
#770=EDGE_CURVE('',#922,#924,#120,.T.);
#771=EDGE_CURVE('',#923,#925,#121,.T.);
#772=EDGE_CURVE('',#925,#924,#122,.T.);
#773=EDGE_CURVE('',#924,#926,#123,.T.);
#774=EDGE_CURVE('',#925,#927,#124,.T.);
#775=EDGE_CURVE('',#927,#926,#125,.T.);
#776=EDGE_CURVE('',#926,#928,#126,.T.);
#777=EDGE_CURVE('',#927,#929,#127,.T.);
#778=EDGE_CURVE('',#929,#928,#128,.T.);
#779=EDGE_CURVE('',#928,#930,#1006,.T.);
#780=EDGE_CURVE('',#929,#931,#1007,.T.);
#781=EDGE_CURVE('',#931,#930,#129,.T.);
#782=EDGE_CURVE('',#930,#932,#130,.T.);
#783=EDGE_CURVE('',#931,#933,#131,.T.);
#784=EDGE_CURVE('',#933,#932,#132,.T.);
#785=EDGE_CURVE('',#932,#934,#1008,.T.);
#786=EDGE_CURVE('',#933,#935,#1009,.T.);
#787=EDGE_CURVE('',#935,#934,#133,.T.);
#788=EDGE_CURVE('',#934,#936,#134,.T.);
#789=EDGE_CURVE('',#935,#937,#135,.T.);
#790=EDGE_CURVE('',#937,#936,#136,.T.);
#791=EDGE_CURVE('',#936,#938,#137,.T.);
#792=EDGE_CURVE('',#937,#939,#138,.T.);
#793=EDGE_CURVE('',#939,#938,#139,.T.);
#794=EDGE_CURVE('',#938,#940,#140,.T.);
#795=EDGE_CURVE('',#939,#941,#141,.T.);
#796=EDGE_CURVE('',#941,#940,#142,.T.);
#797=EDGE_CURVE('',#940,#942,#143,.T.);
#798=EDGE_CURVE('',#941,#943,#144,.T.);
#799=EDGE_CURVE('',#943,#942,#145,.T.);
#800=EDGE_CURVE('',#942,#944,#146,.T.);
#801=EDGE_CURVE('',#943,#945,#147,.T.);
#802=EDGE_CURVE('',#945,#944,#148,.T.);
#803=EDGE_CURVE('',#944,#946,#1010,.T.);
#804=EDGE_CURVE('',#945,#947,#1011,.T.);
#805=EDGE_CURVE('',#947,#946,#149,.T.);
#806=EDGE_CURVE('',#946,#948,#150,.T.);
#807=EDGE_CURVE('',#947,#949,#151,.T.);
#808=EDGE_CURVE('',#949,#948,#152,.T.);
#809=EDGE_CURVE('',#948,#950,#1012,.T.);
#810=EDGE_CURVE('',#949,#951,#1013,.T.);
#811=EDGE_CURVE('',#951,#950,#153,.T.);
#812=EDGE_CURVE('',#950,#952,#154,.T.);
#813=EDGE_CURVE('',#951,#953,#155,.T.);
#814=EDGE_CURVE('',#953,#952,#156,.T.);
#815=EDGE_CURVE('',#952,#954,#157,.T.);
#816=EDGE_CURVE('',#953,#955,#158,.T.);
#817=EDGE_CURVE('',#955,#954,#159,.T.);
#818=EDGE_CURVE('',#954,#956,#160,.T.);
#819=EDGE_CURVE('',#955,#957,#161,.T.);
#820=EDGE_CURVE('',#957,#956,#162,.T.);
#821=EDGE_CURVE('',#956,#958,#163,.T.);
#822=EDGE_CURVE('',#957,#959,#164,.T.);
#823=EDGE_CURVE('',#959,#958,#165,.T.);
#824=EDGE_CURVE('',#958,#960,#166,.T.);
#825=EDGE_CURVE('',#959,#961,#167,.T.);
#826=EDGE_CURVE('',#961,#960,#168,.T.);
#827=EDGE_CURVE('',#960,#962,#1014,.T.);
#828=EDGE_CURVE('',#961,#963,#1015,.T.);
#829=EDGE_CURVE('',#963,#962,#169,.T.);
#830=EDGE_CURVE('',#962,#964,#170,.T.);
#831=EDGE_CURVE('',#963,#965,#171,.T.);
#832=EDGE_CURVE('',#965,#964,#172,.T.);
#833=EDGE_CURVE('',#964,#966,#1016,.T.);
#834=EDGE_CURVE('',#965,#967,#1017,.T.);
#835=EDGE_CURVE('',#967,#966,#173,.T.);
#836=EDGE_CURVE('',#966,#968,#174,.T.);
#837=EDGE_CURVE('',#967,#969,#175,.T.);
#838=EDGE_CURVE('',#969,#968,#176,.T.);
#839=EDGE_CURVE('',#968,#970,#177,.T.);
#840=EDGE_CURVE('',#969,#971,#178,.T.);
#841=EDGE_CURVE('',#971,#970,#179,.T.);
#842=EDGE_CURVE('',#970,#972,#180,.T.);
#843=EDGE_CURVE('',#971,#973,#181,.T.);
#844=EDGE_CURVE('',#973,#972,#182,.T.);
#845=EDGE_CURVE('',#972,#974,#183,.T.);
#846=EDGE_CURVE('',#973,#975,#184,.T.);
#847=EDGE_CURVE('',#975,#974,#185,.T.);
#848=EDGE_CURVE('',#974,#976,#186,.T.);
#849=EDGE_CURVE('',#975,#977,#187,.T.);
#850=EDGE_CURVE('',#977,#976,#188,.T.);
#851=EDGE_CURVE('',#976,#978,#1018,.T.);
#852=EDGE_CURVE('',#977,#979,#1019,.T.);
#853=EDGE_CURVE('',#979,#978,#189,.T.);
#854=EDGE_CURVE('',#978,#980,#190,.T.);
#855=EDGE_CURVE('',#979,#981,#191,.T.);
#856=EDGE_CURVE('',#981,#980,#192,.T.);
#857=EDGE_CURVE('',#980,#982,#1020,.T.);
#858=EDGE_CURVE('',#981,#983,#1021,.T.);
#859=EDGE_CURVE('',#983,#982,#193,.T.);
#860=EDGE_CURVE('',#982,#984,#194,.T.);
#861=EDGE_CURVE('',#983,#985,#195,.T.);
#862=EDGE_CURVE('',#985,#984,#196,.T.);
#863=EDGE_CURVE('',#984,#986,#197,.T.);
#864=EDGE_CURVE('',#985,#987,#198,.T.);
#865=EDGE_CURVE('',#987,#986,#199,.T.);
#866=EDGE_CURVE('',#986,#988,#200,.T.);
#867=EDGE_CURVE('',#987,#989,#201,.T.);
#868=EDGE_CURVE('',#989,#988,#202,.T.);
#869=EDGE_CURVE('',#988,#990,#203,.T.);
#870=EDGE_CURVE('',#989,#991,#204,.T.);
#871=EDGE_CURVE('',#991,#990,#205,.T.);
#872=EDGE_CURVE('',#990,#992,#206,.T.);
#873=EDGE_CURVE('',#991,#993,#207,.T.);
#874=EDGE_CURVE('',#993,#992,#208,.T.);
#875=EDGE_CURVE('',#992,#994,#1022,.T.);
#876=EDGE_CURVE('',#993,#995,#1023,.T.);
#877=EDGE_CURVE('',#995,#994,#209,.T.);
#878=EDGE_CURVE('',#994,#880,#210,.T.);
#879=EDGE_CURVE('',#995,#882,#211,.T.);
#880=VERTEX_POINT('',#1646);
#881=VERTEX_POINT('',#1647);
#882=VERTEX_POINT('',#1649);
#883=VERTEX_POINT('',#1651);
#884=VERTEX_POINT('',#1655);
#885=VERTEX_POINT('',#1657);
#886=VERTEX_POINT('',#1661);
#887=VERTEX_POINT('',#1663);
#888=VERTEX_POINT('',#1667);
#889=VERTEX_POINT('',#1669);
#890=VERTEX_POINT('',#1673);
#891=VERTEX_POINT('',#1675);
#892=VERTEX_POINT('',#1679);
#893=VERTEX_POINT('',#1681);
#894=VERTEX_POINT('',#1685);
#895=VERTEX_POINT('',#1687);
#896=VERTEX_POINT('',#1691);
#897=VERTEX_POINT('',#1693);
#898=VERTEX_POINT('',#1697);
#899=VERTEX_POINT('',#1699);
#900=VERTEX_POINT('',#1703);
#901=VERTEX_POINT('',#1705);
#902=VERTEX_POINT('',#1709);
#903=VERTEX_POINT('',#1711);
#904=VERTEX_POINT('',#1715);
#905=VERTEX_POINT('',#1717);
#906=VERTEX_POINT('',#1721);
#907=VERTEX_POINT('',#1723);
#908=VERTEX_POINT('',#1727);
#909=VERTEX_POINT('',#1729);
#910=VERTEX_POINT('',#1733);
#911=VERTEX_POINT('',#1735);
#912=VERTEX_POINT('',#1739);
#913=VERTEX_POINT('',#1741);
#914=VERTEX_POINT('',#1745);
#915=VERTEX_POINT('',#1747);
#916=VERTEX_POINT('',#1751);
#917=VERTEX_POINT('',#1753);
#918=VERTEX_POINT('',#1757);
#919=VERTEX_POINT('',#1759);
#920=VERTEX_POINT('',#1763);
#921=VERTEX_POINT('',#1765);
#922=VERTEX_POINT('',#1769);
#923=VERTEX_POINT('',#1771);
#924=VERTEX_POINT('',#1775);
#925=VERTEX_POINT('',#1777);
#926=VERTEX_POINT('',#1781);
#927=VERTEX_POINT('',#1783);
#928=VERTEX_POINT('',#1787);
#929=VERTEX_POINT('',#1789);
#930=VERTEX_POINT('',#1793);
#931=VERTEX_POINT('',#1795);
#932=VERTEX_POINT('',#1799);
#933=VERTEX_POINT('',#1801);
#934=VERTEX_POINT('',#1805);
#935=VERTEX_POINT('',#1807);
#936=VERTEX_POINT('',#1811);
#937=VERTEX_POINT('',#1813);
#938=VERTEX_POINT('',#1817);
#939=VERTEX_POINT('',#1819);
#940=VERTEX_POINT('',#1823);
#941=VERTEX_POINT('',#1825);
#942=VERTEX_POINT('',#1829);
#943=VERTEX_POINT('',#1831);
#944=VERTEX_POINT('',#1835);
#945=VERTEX_POINT('',#1837);
#946=VERTEX_POINT('',#1841);
#947=VERTEX_POINT('',#1843);
#948=VERTEX_POINT('',#1847);
#949=VERTEX_POINT('',#1849);
#950=VERTEX_POINT('',#1853);
#951=VERTEX_POINT('',#1855);
#952=VERTEX_POINT('',#1859);
#953=VERTEX_POINT('',#1861);
#954=VERTEX_POINT('',#1865);
#955=VERTEX_POINT('',#1867);
#956=VERTEX_POINT('',#1871);
#957=VERTEX_POINT('',#1873);
#958=VERTEX_POINT('',#1877);
#959=VERTEX_POINT('',#1879);
#960=VERTEX_POINT('',#1883);
#961=VERTEX_POINT('',#1885);
#962=VERTEX_POINT('',#1889);
#963=VERTEX_POINT('',#1891);
#964=VERTEX_POINT('',#1895);
#965=VERTEX_POINT('',#1897);
#966=VERTEX_POINT('',#1901);
#967=VERTEX_POINT('',#1903);
#968=VERTEX_POINT('',#1907);
#969=VERTEX_POINT('',#1909);
#970=VERTEX_POINT('',#1913);
#971=VERTEX_POINT('',#1915);
#972=VERTEX_POINT('',#1919);
#973=VERTEX_POINT('',#1921);
#974=VERTEX_POINT('',#1925);
#975=VERTEX_POINT('',#1927);
#976=VERTEX_POINT('',#1931);
#977=VERTEX_POINT('',#1933);
#978=VERTEX_POINT('',#1937);
#979=VERTEX_POINT('',#1939);
#980=VERTEX_POINT('',#1943);
#981=VERTEX_POINT('',#1945);
#982=VERTEX_POINT('',#1949);
#983=VERTEX_POINT('',#1951);
#984=VERTEX_POINT('',#1955);
#985=VERTEX_POINT('',#1957);
#986=VERTEX_POINT('',#1961);
#987=VERTEX_POINT('',#1963);
#988=VERTEX_POINT('',#1967);
#989=VERTEX_POINT('',#1969);
#990=VERTEX_POINT('',#1973);
#991=VERTEX_POINT('',#1975);
#992=VERTEX_POINT('',#1979);
#993=VERTEX_POINT('',#1981);
#994=VERTEX_POINT('',#1985);
#995=VERTEX_POINT('',#1987);
#996=CIRCLE('',#1232,1.25);
#997=CIRCLE('',#1233,1.25);
#998=CIRCLE('',#1242,1.25);
#999=CIRCLE('',#1243,1.25);
#1000=CIRCLE('',#1246,1.25);
#1001=CIRCLE('',#1247,1.25);
#1002=CIRCLE('',#1254,1.25);
#1003=CIRCLE('',#1255,1.25);
#1004=CIRCLE('',#1258,1.25);
#1005=CIRCLE('',#1259,1.25);
#1006=CIRCLE('',#1266,1.25);
#1007=CIRCLE('',#1267,1.25);
#1008=CIRCLE('',#1270,1.25);
#1009=CIRCLE('',#1271,1.25);
#1010=CIRCLE('',#1278,1.25);
#1011=CIRCLE('',#1279,1.25);
#1012=CIRCLE('',#1282,1.25);
#1013=CIRCLE('',#1283,1.25);
#1014=CIRCLE('',#1290,1.25);
#1015=CIRCLE('',#1291,1.25);
#1016=CIRCLE('',#1294,1.25);
#1017=CIRCLE('',#1295,1.25);
#1018=CIRCLE('',#1302,1.25);
#1019=CIRCLE('',#1303,1.25);
#1020=CIRCLE('',#1306,1.25);
#1021=CIRCLE('',#1307,1.25);
#1022=CIRCLE('',#1314,1.25);
#1023=CIRCLE('',#1315,1.25);
#1024=EDGE_LOOP('',(#358,#359,#360,#361));
#1025=EDGE_LOOP('',(#362,#363,#364,#365));
#1026=EDGE_LOOP('',(#366,#367,#368,#369));
#1027=EDGE_LOOP('',(#370,#371,#372,#373));
#1028=EDGE_LOOP('',(#374,#375,#376,#377));
#1029=EDGE_LOOP('',(#378,#379,#380,#381));
#1030=EDGE_LOOP('',(#382,#383,#384,#385));
#1031=EDGE_LOOP('',(#386,#387,#388,#389));
#1032=EDGE_LOOP('',(#390,#391,#392,#393));
#1033=EDGE_LOOP('',(#394,#395,#396,#397));
#1034=EDGE_LOOP('',(#398,#399,#400,#401));
#1035=EDGE_LOOP('',(#402,#403,#404,#405));
#1036=EDGE_LOOP('',(#406,#407,#408,#409));
#1037=EDGE_LOOP('',(#410,#411,#412,#413));
#1038=EDGE_LOOP('',(#414,#415,#416,#417));
#1039=EDGE_LOOP('',(#418,#419,#420,#421));
#1040=EDGE_LOOP('',(#422,#423,#424,#425));
#1041=EDGE_LOOP('',(#426,#427,#428,#429));
#1042=EDGE_LOOP('',(#430,#431,#432,#433));
#1043=EDGE_LOOP('',(#434,#435,#436,#437));
#1044=EDGE_LOOP('',(#438,#439,#440,#441));
#1045=EDGE_LOOP('',(#442,#443,#444,#445));
#1046=EDGE_LOOP('',(#446,#447,#448,#449));
#1047=EDGE_LOOP('',(#450,#451,#452,#453));
#1048=EDGE_LOOP('',(#454,#455,#456,#457));
#1049=EDGE_LOOP('',(#458,#459,#460,#461));
#1050=EDGE_LOOP('',(#462,#463,#464,#465));
#1051=EDGE_LOOP('',(#466,#467,#468,#469));
#1052=EDGE_LOOP('',(#470,#471,#472,#473));
#1053=EDGE_LOOP('',(#474,#475,#476,#477));
#1054=EDGE_LOOP('',(#478,#479,#480,#481));
#1055=EDGE_LOOP('',(#482,#483,#484,#485));
#1056=EDGE_LOOP('',(#486,#487,#488,#489));
#1057=EDGE_LOOP('',(#490,#491,#492,#493));
#1058=EDGE_LOOP('',(#494,#495,#496,#497));
#1059=EDGE_LOOP('',(#498,#499,#500,#501));
#1060=EDGE_LOOP('',(#502,#503,#504,#505));
#1061=EDGE_LOOP('',(#506,#507,#508,#509));
#1062=EDGE_LOOP('',(#510,#511,#512,#513));
#1063=EDGE_LOOP('',(#514,#515,#516,#517));
#1064=EDGE_LOOP('',(#518,#519,#520,#521));
#1065=EDGE_LOOP('',(#522,#523,#524,#525));
#1066=EDGE_LOOP('',(#526,#527,#528,#529));
#1067=EDGE_LOOP('',(#530,#531,#532,#533));
#1068=EDGE_LOOP('',(#534,#535,#536,#537));
#1069=EDGE_LOOP('',(#538,#539,#540,#541));
#1070=EDGE_LOOP('',(#542,#543,#544,#545));
#1071=EDGE_LOOP('',(#546,#547,#548,#549));
#1072=EDGE_LOOP('',(#550,#551,#552,#553));
#1073=EDGE_LOOP('',(#554,#555,#556,#557));
#1074=EDGE_LOOP('',(#558,#559,#560,#561));
#1075=EDGE_LOOP('',(#562,#563,#564,#565));
#1076=EDGE_LOOP('',(#566,#567,#568,#569));
#1077=EDGE_LOOP('',(#570,#571,#572,#573));
#1078=EDGE_LOOP('',(#574,#575,#576,#577));
#1079=EDGE_LOOP('',(#578,#579,#580,#581));
#1080=EDGE_LOOP('',(#582,#583,#584,#585));
#1081=EDGE_LOOP('',(#586,#587,#588,#589));
#1082=EDGE_LOOP('',(#590,#591,#592,#593,#594,#595,#596,#597,#598,#599,#600,
#601,#602,#603,#604,#605,#606,#607,#608,#609,#610,#611,#612,#613,#614,#615,
#616,#617,#618,#619,#620,#621,#622,#623,#624,#625,#626,#627,#628,#629,#630,
#631,#632,#633,#634,#635,#636,#637,#638,#639,#640,#641,#642,#643,#644,#645,
#646,#647));
#1083=EDGE_LOOP('',(#648,#649,#650,#651,#652,#653,#654,#655,#656,#657,#658,
#659,#660,#661,#662,#663,#664,#665,#666,#667,#668,#669,#670,#671,#672,#673,
#674,#675,#676,#677,#678,#679,#680,#681,#682,#683,#684,#685,#686,#687,#688,
#689,#690,#691,#692,#693,#694,#695,#696,#697,#698,#699,#700,#701,#702,#703,
#704,#705));
#1084=FACE_BOUND('',#1024,.T.);
#1085=FACE_BOUND('',#1025,.T.);
#1086=FACE_BOUND('',#1026,.T.);
#1087=FACE_BOUND('',#1027,.T.);
#1088=FACE_BOUND('',#1028,.T.);
#1089=FACE_BOUND('',#1029,.T.);
#1090=FACE_BOUND('',#1030,.T.);
#1091=FACE_BOUND('',#1031,.T.);
#1092=FACE_BOUND('',#1032,.T.);
#1093=FACE_BOUND('',#1033,.T.);
#1094=FACE_BOUND('',#1034,.T.);
#1095=FACE_BOUND('',#1035,.T.);
#1096=FACE_BOUND('',#1036,.T.);
#1097=FACE_BOUND('',#1037,.T.);
#1098=FACE_BOUND('',#1038,.T.);
#1099=FACE_BOUND('',#1039,.T.);
#1100=FACE_BOUND('',#1040,.T.);
#1101=FACE_BOUND('',#1041,.T.);
#1102=FACE_BOUND('',#1042,.T.);
#1103=FACE_BOUND('',#1043,.T.);
#1104=FACE_BOUND('',#1044,.T.);
#1105=FACE_BOUND('',#1045,.T.);
#1106=FACE_BOUND('',#1046,.T.);
#1107=FACE_BOUND('',#1047,.T.);
#1108=FACE_BOUND('',#1048,.T.);
#1109=FACE_BOUND('',#1049,.T.);
#1110=FACE_BOUND('',#1050,.T.);
#1111=FACE_BOUND('',#1051,.T.);
#1112=FACE_BOUND('',#1052,.T.);
#1113=FACE_BOUND('',#1053,.T.);
#1114=FACE_BOUND('',#1054,.T.);
#1115=FACE_BOUND('',#1055,.T.);
#1116=FACE_BOUND('',#1056,.T.);
#1117=FACE_BOUND('',#1057,.T.);
#1118=FACE_BOUND('',#1058,.T.);
#1119=FACE_BOUND('',#1059,.T.);
#1120=FACE_BOUND('',#1060,.T.);
#1121=FACE_BOUND('',#1061,.T.);
#1122=FACE_BOUND('',#1062,.T.);
#1123=FACE_BOUND('',#1063,.T.);
#1124=FACE_BOUND('',#1064,.T.);
#1125=FACE_BOUND('',#1065,.T.);
#1126=FACE_BOUND('',#1066,.T.);
#1127=FACE_BOUND('',#1067,.T.);
#1128=FACE_BOUND('',#1068,.T.);
#1129=FACE_BOUND('',#1069,.T.);
#1130=FACE_BOUND('',#1070,.T.);
#1131=FACE_BOUND('',#1071,.T.);
#1132=FACE_BOUND('',#1072,.T.);
#1133=FACE_BOUND('',#1073,.T.);
#1134=FACE_BOUND('',#1074,.T.);
#1135=FACE_BOUND('',#1075,.T.);
#1136=FACE_BOUND('',#1076,.T.);
#1137=FACE_BOUND('',#1077,.T.);
#1138=FACE_BOUND('',#1078,.T.);
#1139=FACE_BOUND('',#1079,.T.);
#1140=FACE_BOUND('',#1080,.T.);
#1141=FACE_BOUND('',#1081,.T.);
#1142=FACE_BOUND('',#1082,.T.);
#1143=FACE_BOUND('',#1083,.T.);
#1144=CYLINDRICAL_SURFACE('',#1231,1.25);
#1145=CYLINDRICAL_SURFACE('',#1241,1.25);
#1146=CYLINDRICAL_SURFACE('',#1245,1.25);
#1147=CYLINDRICAL_SURFACE('',#1253,1.25);
#1148=CYLINDRICAL_SURFACE('',#1257,1.25);
#1149=CYLINDRICAL_SURFACE('',#1265,1.25);
#1150=CYLINDRICAL_SURFACE('',#1269,1.25);
#1151=CYLINDRICAL_SURFACE('',#1277,1.25);
#1152=CYLINDRICAL_SURFACE('',#1281,1.25);
#1153=CYLINDRICAL_SURFACE('',#1289,1.25);
#1154=CYLINDRICAL_SURFACE('',#1293,1.25);
#1155=CYLINDRICAL_SURFACE('',#1301,1.25);
#1156=CYLINDRICAL_SURFACE('',#1305,1.25);
#1157=CYLINDRICAL_SURFACE('',#1313,1.25);
#1158=ADVANCED_FACE('',(#1084),#1144,.T.);
#1159=ADVANCED_FACE('',(#1085),#20,.T.);
#1160=ADVANCED_FACE('',(#1086),#21,.T.);
#1161=ADVANCED_FACE('',(#1087),#22,.T.);
#1162=ADVANCED_FACE('',(#1088),#23,.T.);
#1163=ADVANCED_FACE('',(#1089),#24,.T.);
#1164=ADVANCED_FACE('',(#1090),#25,.T.);
#1165=ADVANCED_FACE('',(#1091),#26,.T.);
#1166=ADVANCED_FACE('',(#1092),#1145,.T.);
#1167=ADVANCED_FACE('',(#1093),#27,.T.);
#1168=ADVANCED_FACE('',(#1094),#1146,.T.);
#1169=ADVANCED_FACE('',(#1095),#28,.T.);
#1170=ADVANCED_FACE('',(#1096),#29,.T.);
#1171=ADVANCED_FACE('',(#1097),#30,.T.);
#1172=ADVANCED_FACE('',(#1098),#31,.T.);
#1173=ADVANCED_FACE('',(#1099),#32,.T.);
#1174=ADVANCED_FACE('',(#1100),#1147,.T.);
#1175=ADVANCED_FACE('',(#1101),#33,.T.);
#1176=ADVANCED_FACE('',(#1102),#1148,.T.);
#1177=ADVANCED_FACE('',(#1103),#34,.T.);
#1178=ADVANCED_FACE('',(#1104),#35,.T.);
#1179=ADVANCED_FACE('',(#1105),#36,.T.);
#1180=ADVANCED_FACE('',(#1106),#37,.T.);
#1181=ADVANCED_FACE('',(#1107),#38,.T.);
#1182=ADVANCED_FACE('',(#1108),#1149,.T.);
#1183=ADVANCED_FACE('',(#1109),#39,.T.);
#1184=ADVANCED_FACE('',(#1110),#1150,.T.);
#1185=ADVANCED_FACE('',(#1111),#40,.T.);
#1186=ADVANCED_FACE('',(#1112),#41,.T.);
#1187=ADVANCED_FACE('',(#1113),#42,.T.);
#1188=ADVANCED_FACE('',(#1114),#43,.T.);
#1189=ADVANCED_FACE('',(#1115),#44,.T.);
#1190=ADVANCED_FACE('',(#1116),#1151,.T.);
#1191=ADVANCED_FACE('',(#1117),#45,.T.);
#1192=ADVANCED_FACE('',(#1118),#1152,.T.);
#1193=ADVANCED_FACE('',(#1119),#46,.T.);
#1194=ADVANCED_FACE('',(#1120),#47,.T.);
#1195=ADVANCED_FACE('',(#1121),#48,.T.);
#1196=ADVANCED_FACE('',(#1122),#49,.T.);
#1197=ADVANCED_FACE('',(#1123),#50,.T.);
#1198=ADVANCED_FACE('',(#1124),#1153,.T.);
#1199=ADVANCED_FACE('',(#1125),#51,.T.);
#1200=ADVANCED_FACE('',(#1126),#1154,.T.);
#1201=ADVANCED_FACE('',(#1127),#52,.T.);
#1202=ADVANCED_FACE('',(#1128),#53,.T.);
#1203=ADVANCED_FACE('',(#1129),#54,.T.);
#1204=ADVANCED_FACE('',(#1130),#55,.T.);
#1205=ADVANCED_FACE('',(#1131),#56,.T.);
#1206=ADVANCED_FACE('',(#1132),#1155,.T.);
#1207=ADVANCED_FACE('',(#1133),#57,.T.);
#1208=ADVANCED_FACE('',(#1134),#1156,.T.);
#1209=ADVANCED_FACE('',(#1135),#58,.T.);
#1210=ADVANCED_FACE('',(#1136),#59,.T.);
#1211=ADVANCED_FACE('',(#1137),#60,.T.);
#1212=ADVANCED_FACE('',(#1138),#61,.T.);
#1213=ADVANCED_FACE('',(#1139),#62,.T.);
#1214=ADVANCED_FACE('',(#1140),#1157,.T.);
#1215=ADVANCED_FACE('',(#1141),#63,.T.);
#1216=ADVANCED_FACE('',(#1142),#64,.F.);
#1217=ADVANCED_FACE('',(#1143),#65,.T.);
#1218=CLOSED_SHELL('',(#1158,#1159,#1160,#1161,#1162,#1163,#1164,#1165,
#1166,#1167,#1168,#1169,#1170,#1171,#1172,#1173,#1174,#1175,#1176,#1177,
#1178,#1179,#1180,#1181,#1182,#1183,#1184,#1185,#1186,#1187,#1188,#1189,
#1190,#1191,#1192,#1193,#1194,#1195,#1196,#1197,#1198,#1199,#1200,#1201,
#1202,#1203,#1204,#1205,#1206,#1207,#1208,#1209,#1210,#1211,#1212,#1213,
#1214,#1215,#1216,#1217));
#1219=STYLED_ITEM('',(#1220),#1227);
#1220=PRESENTATION_STYLE_ASSIGNMENT((#1221));
#1221=SURFACE_STYLE_USAGE(.BOTH.,#1222);
#1222=SURFACE_SIDE_STYLE('',(#1223));
#1223=SURFACE_STYLE_FILL_AREA(#1224);
#1224=FILL_AREA_STYLE('',(#1225));
#1225=FILL_AREA_STYLE_COLOUR('',#1226);
#1226=COLOUR_RGB('',0.699999988079071,0.699999988079071,0.699999988079071);
#1227=MANIFOLD_SOLID_BREP('',#1218);
#1228=SHAPE_DEFINITION_REPRESENTATION(#2000,#1229);
#1229=SHAPE_REPRESENTATION('RAD-A5723_40',(#1230),#1995);
#1230=AXIS2_PLACEMENT_3D('',#1643,#1319,#1320);
#1231=AXIS2_PLACEMENT_3D('',#1644,#1321,#1322);
#1232=AXIS2_PLACEMENT_3D('',#1645,#1323,#1324);
#1233=AXIS2_PLACEMENT_3D('',#1650,#1326,#1327);
#1234=AXIS2_PLACEMENT_3D('',#1653,#1329,#1330);
#1235=AXIS2_PLACEMENT_3D('',#1659,#1334,#1335);
#1236=AXIS2_PLACEMENT_3D('',#1665,#1339,#1340);
#1237=AXIS2_PLACEMENT_3D('',#1671,#1344,#1345);
#1238=AXIS2_PLACEMENT_3D('',#1677,#1349,#1350);
#1239=AXIS2_PLACEMENT_3D('',#1683,#1354,#1355);
#1240=AXIS2_PLACEMENT_3D('',#1689,#1359,#1360);
#1241=AXIS2_PLACEMENT_3D('',#1695,#1364,#1365);
#1242=AXIS2_PLACEMENT_3D('',#1696,#1366,#1367);
#1243=AXIS2_PLACEMENT_3D('',#1698,#1368,#1369);
#1244=AXIS2_PLACEMENT_3D('',#1701,#1371,#1372);
#1245=AXIS2_PLACEMENT_3D('',#1707,#1376,#1377);
#1246=AXIS2_PLACEMENT_3D('',#1708,#1378,#1379);
#1247=AXIS2_PLACEMENT_3D('',#1710,#1380,#1381);
#1248=AXIS2_PLACEMENT_3D('',#1713,#1383,#1384);
#1249=AXIS2_PLACEMENT_3D('',#1719,#1388,#1389);
#1250=AXIS2_PLACEMENT_3D('',#1725,#1393,#1394);
#1251=AXIS2_PLACEMENT_3D('',#1731,#1398,#1399);
#1252=AXIS2_PLACEMENT_3D('',#1737,#1403,#1404);
#1253=AXIS2_PLACEMENT_3D('',#1743,#1408,#1409);
#1254=AXIS2_PLACEMENT_3D('',#1744,#1410,#1411);
#1255=AXIS2_PLACEMENT_3D('',#1746,#1412,#1413);
#1256=AXIS2_PLACEMENT_3D('',#1749,#1415,#1416);
#1257=AXIS2_PLACEMENT_3D('',#1755,#1420,#1421);
#1258=AXIS2_PLACEMENT_3D('',#1756,#1422,#1423);
#1259=AXIS2_PLACEMENT_3D('',#1758,#1424,#1425);
#1260=AXIS2_PLACEMENT_3D('',#1761,#1427,#1428);
#1261=AXIS2_PLACEMENT_3D('',#1767,#1432,#1433);
#1262=AXIS2_PLACEMENT_3D('',#1773,#1437,#1438);
#1263=AXIS2_PLACEMENT_3D('',#1779,#1442,#1443);
#1264=AXIS2_PLACEMENT_3D('',#1785,#1447,#1448);
#1265=AXIS2_PLACEMENT_3D('',#1791,#1452,#1453);
#1266=AXIS2_PLACEMENT_3D('',#1792,#1454,#1455);
#1267=AXIS2_PLACEMENT_3D('',#1794,#1456,#1457);
#1268=AXIS2_PLACEMENT_3D('',#1797,#1459,#1460);
#1269=AXIS2_PLACEMENT_3D('',#1803,#1464,#1465);
#1270=AXIS2_PLACEMENT_3D('',#1804,#1466,#1467);
#1271=AXIS2_PLACEMENT_3D('',#1806,#1468,#1469);
#1272=AXIS2_PLACEMENT_3D('',#1809,#1471,#1472);
#1273=AXIS2_PLACEMENT_3D('',#1815,#1476,#1477);
#1274=AXIS2_PLACEMENT_3D('',#1821,#1481,#1482);
#1275=AXIS2_PLACEMENT_3D('',#1827,#1486,#1487);
#1276=AXIS2_PLACEMENT_3D('',#1833,#1491,#1492);
#1277=AXIS2_PLACEMENT_3D('',#1839,#1496,#1497);
#1278=AXIS2_PLACEMENT_3D('',#1840,#1498,#1499);
#1279=AXIS2_PLACEMENT_3D('',#1842,#1500,#1501);
#1280=AXIS2_PLACEMENT_3D('',#1845,#1503,#1504);
#1281=AXIS2_PLACEMENT_3D('',#1851,#1508,#1509);
#1282=AXIS2_PLACEMENT_3D('',#1852,#1510,#1511);
#1283=AXIS2_PLACEMENT_3D('',#1854,#1512,#1513);
#1284=AXIS2_PLACEMENT_3D('',#1857,#1515,#1516);
#1285=AXIS2_PLACEMENT_3D('',#1863,#1520,#1521);
#1286=AXIS2_PLACEMENT_3D('',#1869,#1525,#1526);
#1287=AXIS2_PLACEMENT_3D('',#1875,#1530,#1531);
#1288=AXIS2_PLACEMENT_3D('',#1881,#1535,#1536);
#1289=AXIS2_PLACEMENT_3D('',#1887,#1540,#1541);
#1290=AXIS2_PLACEMENT_3D('',#1888,#1542,#1543);
#1291=AXIS2_PLACEMENT_3D('',#1890,#1544,#1545);
#1292=AXIS2_PLACEMENT_3D('',#1893,#1547,#1548);
#1293=AXIS2_PLACEMENT_3D('',#1899,#1552,#1553);
#1294=AXIS2_PLACEMENT_3D('',#1900,#1554,#1555);
#1295=AXIS2_PLACEMENT_3D('',#1902,#1556,#1557);
#1296=AXIS2_PLACEMENT_3D('',#1905,#1559,#1560);
#1297=AXIS2_PLACEMENT_3D('',#1911,#1564,#1565);
#1298=AXIS2_PLACEMENT_3D('',#1917,#1569,#1570);
#1299=AXIS2_PLACEMENT_3D('',#1923,#1574,#1575);
#1300=AXIS2_PLACEMENT_3D('',#1929,#1579,#1580);
#1301=AXIS2_PLACEMENT_3D('',#1935,#1584,#1585);
#1302=AXIS2_PLACEMENT_3D('',#1936,#1586,#1587);
#1303=AXIS2_PLACEMENT_3D('',#1938,#1588,#1589);
#1304=AXIS2_PLACEMENT_3D('',#1941,#1591,#1592);
#1305=AXIS2_PLACEMENT_3D('',#1947,#1596,#1597);
#1306=AXIS2_PLACEMENT_3D('',#1948,#1598,#1599);
#1307=AXIS2_PLACEMENT_3D('',#1950,#1600,#1601);
#1308=AXIS2_PLACEMENT_3D('',#1953,#1603,#1604);
#1309=AXIS2_PLACEMENT_3D('',#1959,#1608,#1609);
#1310=AXIS2_PLACEMENT_3D('',#1965,#1613,#1614);
#1311=AXIS2_PLACEMENT_3D('',#1971,#1618,#1619);
#1312=AXIS2_PLACEMENT_3D('',#1977,#1623,#1624);
#1313=AXIS2_PLACEMENT_3D('',#1983,#1628,#1629);
#1314=AXIS2_PLACEMENT_3D('',#1984,#1630,#1631);
#1315=AXIS2_PLACEMENT_3D('',#1986,#1632,#1633);
#1316=AXIS2_PLACEMENT_3D('',#1989,#1635,#1636);
#1317=AXIS2_PLACEMENT_3D('',#1992,#1639,#1640);
#1318=AXIS2_PLACEMENT_3D('',#1993,#1641,#1642);
#1319=DIRECTION('',(0.,0.,1.));
#1320=DIRECTION('',(1.,0.,0.));
#1321=DIRECTION('',(0.,1.,0.));
#1322=DIRECTION('',(0.,0.,1.));
#1323=DIRECTION('',(0.,1.,0.));
#1324=DIRECTION('',(-1.,0.,0.));
#1325=DIRECTION('',(0.,1.,0.));
#1326=DIRECTION('',(0.,1.,0.));
#1327=DIRECTION('',(-1.,0.,0.));
#1328=DIRECTION('',(0.,1.,0.));
#1329=DIRECTION('',(1.,0.,0.));
#1330=DIRECTION('',(0.,0.,-1.));
#1331=DIRECTION('',(0.,0.,-1.));
#1332=DIRECTION('',(0.,0.,-1.));
#1333=DIRECTION('',(0.,1.,0.));
#1334=DIRECTION('',(0.858453905077481,0.,0.512890722139934));
#1335=DIRECTION('',(0.512890722139934,0.,-0.858453905077481));
#1336=DIRECTION('',(0.512890722139934,0.,-0.858453905077481));
#1337=DIRECTION('',(0.512890722139934,0.,-0.858453905077481));
#1338=DIRECTION('',(0.,1.,0.));
#1339=DIRECTION('',(1.,0.,0.));
#1340=DIRECTION('',(0.,0.,-1.));
#1341=DIRECTION('',(0.,0.,-1.));
#1342=DIRECTION('',(0.,0.,-1.));
#1343=DIRECTION('',(0.,1.,0.));
#1344=DIRECTION('',(2.01778592734474E-16,0.,-1.));
#1345=DIRECTION('',(-1.,0.,-2.01778592734474E-16));
#1346=DIRECTION('',(-1.,0.,-2.01778592734474E-16));
#1347=DIRECTION('',(-1.,0.,-2.01778592734474E-16));
#1348=DIRECTION('',(0.,1.,0.));
#1349=DIRECTION('',(-1.,0.,0.));
#1350=DIRECTION('',(0.,0.,1.));
#1351=DIRECTION('',(0.,0.,1.));
#1352=DIRECTION('',(0.,0.,1.));
#1353=DIRECTION('',(0.,1.,0.));
#1354=DIRECTION('',(-0.85845390507748,0.,0.512890722139935));
#1355=DIRECTION('',(0.512890722139935,0.,0.85845390507748));
#1356=DIRECTION('',(0.512890722139935,0.,0.85845390507748));
#1357=DIRECTION('',(0.512890722139935,0.,0.85845390507748));
#1358=DIRECTION('',(0.,1.,0.));
#1359=DIRECTION('',(-1.,0.,0.));
#1360=DIRECTION('',(0.,0.,1.));
#1361=DIRECTION('',(0.,0.,1.));
#1362=DIRECTION('',(0.,0.,1.));
#1363=DIRECTION('',(0.,1.,0.));
#1364=DIRECTION('',(0.,1.,0.));
#1365=DIRECTION('',(0.,0.,1.));
#1366=DIRECTION('',(0.,1.,0.));
#1367=DIRECTION('',(1.,0.,0.));
#1368=DIRECTION('',(0.,1.,0.));
#1369=DIRECTION('',(1.,0.,0.));
#1370=DIRECTION('',(0.,1.,0.));
#1371=DIRECTION('',(0.,0.,1.));
#1372=DIRECTION('',(1.,0.,0.));
#1373=DIRECTION('',(1.,0.,0.));
#1374=DIRECTION('',(1.,0.,0.));
#1375=DIRECTION('',(0.,1.,0.));
#1376=DIRECTION('',(0.,1.,0.));
#1377=DIRECTION('',(0.,0.,1.));
#1378=DIRECTION('',(0.,1.,0.));
#1379=DIRECTION('',(-1.,0.,0.));
#1380=DIRECTION('',(0.,1.,0.));
#1381=DIRECTION('',(-1.,0.,0.));
#1382=DIRECTION('',(0.,1.,0.));
#1383=DIRECTION('',(1.,0.,2.71175747273323E-16));
#1384=DIRECTION('',(2.71175747273323E-16,0.,-1.));
#1385=DIRECTION('',(2.71175747273323E-16,0.,-1.));
#1386=DIRECTION('',(2.71175747273323E-16,0.,-1.));
#1387=DIRECTION('',(0.,1.,0.));
#1388=DIRECTION('',(0.858453905077479,0.,0.512890722139937));
#1389=DIRECTION('',(0.512890722139937,0.,-0.858453905077479));
#1390=DIRECTION('',(0.512890722139937,0.,-0.858453905077479));
#1391=DIRECTION('',(0.512890722139937,0.,-0.858453905077479));
#1392=DIRECTION('',(0.,1.,0.));
#1393=DIRECTION('',(-4.69158231023614E-16,0.,1.));
#1394=DIRECTION('',(1.,0.,4.69158231023614E-16));
#1395=DIRECTION('',(1.,0.,4.69158231023614E-16));
#1396=DIRECTION('',(1.,0.,4.69158231023614E-16));
#1397=DIRECTION('',(0.,1.,0.));
#1398=DIRECTION('',(-0.85845390507748,0.,0.512890722139936));
#1399=DIRECTION('',(0.512890722139936,0.,0.85845390507748));
#1400=DIRECTION('',(0.512890722139936,0.,0.85845390507748));
#1401=DIRECTION('',(0.512890722139936,0.,0.85845390507748));
#1402=DIRECTION('',(0.,1.,0.));
#1403=DIRECTION('',(-1.,0.,0.));
#1404=DIRECTION('',(0.,0.,1.));
#1405=DIRECTION('',(0.,0.,1.));
#1406=DIRECTION('',(0.,0.,1.));
#1407=DIRECTION('',(0.,1.,0.));
#1408=DIRECTION('',(0.,1.,0.));
#1409=DIRECTION('',(0.,0.,1.));
#1410=DIRECTION('',(0.,1.,0.));
#1411=DIRECTION('',(1.,0.,0.));
#1412=DIRECTION('',(0.,1.,0.));
#1413=DIRECTION('',(1.,0.,0.));
#1414=DIRECTION('',(0.,1.,0.));
#1415=DIRECTION('',(0.,0.,1.));
#1416=DIRECTION('',(1.,0.,0.));
#1417=DIRECTION('',(1.,0.,0.));
#1418=DIRECTION('',(1.,0.,0.));
#1419=DIRECTION('',(0.,1.,0.));
#1420=DIRECTION('',(0.,1.,0.));
#1421=DIRECTION('',(0.,0.,1.));
#1422=DIRECTION('',(0.,1.,0.));
#1423=DIRECTION('',(-1.,0.,0.));
#1424=DIRECTION('',(0.,1.,0.));
#1425=DIRECTION('',(-1.,0.,0.));
#1426=DIRECTION('',(0.,1.,0.));
#1427=DIRECTION('',(1.,0.,2.71175747273323E-16));
#1428=DIRECTION('',(2.71175747273323E-16,0.,-1.));
#1429=DIRECTION('',(2.71175747273323E-16,0.,-1.));
#1430=DIRECTION('',(2.71175747273323E-16,0.,-1.));
#1431=DIRECTION('',(0.,1.,0.));
#1432=DIRECTION('',(0.85845390507748,0.,0.512890722139937));
#1433=DIRECTION('',(0.512890722139937,0.,-0.85845390507748));
#1434=DIRECTION('',(0.512890722139937,0.,-0.85845390507748));
#1435=DIRECTION('',(0.512890722139937,0.,-0.85845390507748));
#1436=DIRECTION('',(0.,1.,0.));
#1437=DIRECTION('',(-4.69158231023614E-16,0.,1.));
#1438=DIRECTION('',(1.,0.,4.69158231023614E-16));
#1439=DIRECTION('',(1.,0.,4.69158231023614E-16));
#1440=DIRECTION('',(1.,0.,4.69158231023614E-16));
#1441=DIRECTION('',(0.,1.,0.));
#1442=DIRECTION('',(-0.85845390507748,0.,0.512890722139935));
#1443=DIRECTION('',(0.512890722139935,0.,0.85845390507748));
#1444=DIRECTION('',(0.512890722139935,0.,0.85845390507748));
#1445=DIRECTION('',(0.512890722139935,0.,0.85845390507748));
#1446=DIRECTION('',(0.,1.,0.));
#1447=DIRECTION('',(-1.,0.,6.77939368183307E-17));
#1448=DIRECTION('',(6.77939368183307E-17,0.,1.));
#1449=DIRECTION('',(6.77939368183307E-17,0.,1.));
#1450=DIRECTION('',(6.77939368183307E-17,0.,1.));
#1451=DIRECTION('',(0.,1.,0.));
#1452=DIRECTION('',(0.,1.,0.));
#1453=DIRECTION('',(0.,0.,1.));
#1454=DIRECTION('',(0.,1.,0.));
#1455=DIRECTION('',(1.,0.,0.));
#1456=DIRECTION('',(0.,1.,0.));
#1457=DIRECTION('',(1.,0.,0.));
#1458=DIRECTION('',(0.,1.,0.));
#1459=DIRECTION('',(0.,0.,1.));
#1460=DIRECTION('',(1.,0.,0.));
#1461=DIRECTION('',(1.,0.,0.));
#1462=DIRECTION('',(1.,0.,0.));
#1463=DIRECTION('',(0.,1.,0.));
#1464=DIRECTION('',(0.,1.,0.));
#1465=DIRECTION('',(0.,0.,1.));
#1466=DIRECTION('',(0.,1.,0.));
#1467=DIRECTION('',(-1.,0.,0.));
#1468=DIRECTION('',(0.,1.,0.));
#1469=DIRECTION('',(-1.,0.,0.));
#1470=DIRECTION('',(0.,1.,0.));
#1471=DIRECTION('',(1.,0.,4.06763620909985E-16));
#1472=DIRECTION('',(4.06763620909985E-16,0.,-1.));
#1473=DIRECTION('',(4.06763620909985E-16,0.,-1.));
#1474=DIRECTION('',(4.06763620909985E-16,0.,-1.));
#1475=DIRECTION('',(0.,1.,0.));
#1476=DIRECTION('',(0.85845390507748,0.,0.512890722139936));
#1477=DIRECTION('',(0.512890722139936,0.,-0.85845390507748));
#1478=DIRECTION('',(0.512890722139936,0.,-0.85845390507748));
#1479=DIRECTION('',(0.512890722139936,0.,-0.85845390507748));
#1480=DIRECTION('',(0.,1.,0.));
#1481=DIRECTION('',(-4.69158231023614E-16,0.,1.));
#1482=DIRECTION('',(1.,0.,4.69158231023614E-16));
#1483=DIRECTION('',(1.,0.,4.69158231023614E-16));
#1484=DIRECTION('',(1.,0.,4.69158231023614E-16));
#1485=DIRECTION('',(0.,1.,0.));
#1486=DIRECTION('',(-0.85845390507748,0.,0.512890722139936));
#1487=DIRECTION('',(0.512890722139936,0.,0.85845390507748));
#1488=DIRECTION('',(0.512890722139936,0.,0.85845390507748));
#1489=DIRECTION('',(0.512890722139936,0.,0.85845390507748));
#1490=DIRECTION('',(0.,1.,0.));
#1491=DIRECTION('',(-1.,0.,4.23712105114567E-17));
#1492=DIRECTION('',(4.23712105114567E-17,0.,1.));
#1493=DIRECTION('',(4.23712105114567E-17,0.,1.));
#1494=DIRECTION('',(4.23712105114567E-17,0.,1.));
#1495=DIRECTION('',(0.,1.,0.));
#1496=DIRECTION('',(0.,1.,0.));
#1497=DIRECTION('',(0.,0.,1.));
#1498=DIRECTION('',(0.,1.,0.));
#1499=DIRECTION('',(1.,0.,0.));
#1500=DIRECTION('',(0.,1.,0.));
#1501=DIRECTION('',(1.,0.,0.));
#1502=DIRECTION('',(0.,1.,0.));
#1503=DIRECTION('',(0.,0.,1.));
#1504=DIRECTION('',(1.,0.,0.));
#1505=DIRECTION('',(1.,0.,0.));
#1506=DIRECTION('',(1.,0.,0.));
#1507=DIRECTION('',(0.,1.,0.));
#1508=DIRECTION('',(0.,1.,0.));
#1509=DIRECTION('',(0.,0.,1.));
#1510=DIRECTION('',(0.,1.,0.));
#1511=DIRECTION('',(-1.,0.,0.));
#1512=DIRECTION('',(0.,1.,0.));
#1513=DIRECTION('',(-1.,0.,0.));
#1514=DIRECTION('',(0.,1.,0.));
#1515=DIRECTION('',(1.,0.,0.));
#1516=DIRECTION('',(0.,0.,-1.));
#1517=DIRECTION('',(0.,0.,-1.));
#1518=DIRECTION('',(0.,0.,-1.));
#1519=DIRECTION('',(0.,1.,0.));
#1520=DIRECTION('',(0.85845390507748,0.,0.512890722139936));
#1521=DIRECTION('',(0.512890722139936,0.,-0.85845390507748));
#1522=DIRECTION('',(0.512890722139936,0.,-0.85845390507748));
#1523=DIRECTION('',(0.512890722139936,0.,-0.85845390507748));
#1524=DIRECTION('',(0.,1.,0.));
#1525=DIRECTION('',(4.69158231023614E-16,0.,1.));
#1526=DIRECTION('',(1.,0.,-4.69158231023614E-16));
#1527=DIRECTION('',(1.,0.,-4.69158231023614E-16));
#1528=DIRECTION('',(1.,0.,-4.69158231023614E-16));
#1529=DIRECTION('',(0.,1.,0.));
#1530=DIRECTION('',(-0.85845390507748,0.,0.512890722139936));
#1531=DIRECTION('',(0.512890722139936,0.,0.85845390507748));
#1532=DIRECTION('',(0.512890722139936,0.,0.85845390507748));
#1533=DIRECTION('',(0.512890722139936,0.,0.85845390507748));
#1534=DIRECTION('',(0.,1.,0.));
#1535=DIRECTION('',(-1.,0.,4.74557557728315E-16));
#1536=DIRECTION('',(4.74557557728315E-16,0.,1.));
#1537=DIRECTION('',(4.74557557728315E-16,0.,1.));
#1538=DIRECTION('',(4.74557557728315E-16,0.,1.));
#1539=DIRECTION('',(0.,1.,0.));
#1540=DIRECTION('',(0.,1.,0.));
#1541=DIRECTION('',(0.,0.,1.));
#1542=DIRECTION('',(0.,1.,0.));
#1543=DIRECTION('',(1.,0.,0.));
#1544=DIRECTION('',(0.,1.,0.));
#1545=DIRECTION('',(1.,0.,0.));
#1546=DIRECTION('',(0.,1.,0.));
#1547=DIRECTION('',(0.,0.,1.));
#1548=DIRECTION('',(1.,0.,0.));
#1549=DIRECTION('',(1.,0.,0.));
#1550=DIRECTION('',(1.,0.,0.));
#1551=DIRECTION('',(0.,1.,0.));
#1552=DIRECTION('',(0.,1.,0.));
#1553=DIRECTION('',(0.,0.,1.));
#1554=DIRECTION('',(0.,1.,0.));
#1555=DIRECTION('',(-1.,0.,0.));
#1556=DIRECTION('',(0.,1.,0.));
#1557=DIRECTION('',(-1.,0.,0.));
#1558=DIRECTION('',(0.,1.,0.));
#1559=DIRECTION('',(1.,0.,0.));
#1560=DIRECTION('',(0.,0.,-1.));
#1561=DIRECTION('',(0.,0.,-1.));
#1562=DIRECTION('',(0.,0.,-1.));
#1563=DIRECTION('',(0.,1.,0.));
#1564=DIRECTION('',(0.85845390507748,0.,0.512890722139935));
#1565=DIRECTION('',(0.512890722139935,0.,-0.85845390507748));
#1566=DIRECTION('',(0.512890722139935,0.,-0.85845390507748));
#1567=DIRECTION('',(0.512890722139935,0.,-0.85845390507748));
#1568=DIRECTION('',(0.,1.,0.));
#1569=DIRECTION('',(4.69158231023613E-16,0.,1.));
#1570=DIRECTION('',(1.,0.,-4.69158231023613E-16));
#1571=DIRECTION('',(1.,0.,-4.69158231023613E-16));
#1572=DIRECTION('',(1.,0.,-4.69158231023613E-16));
#1573=DIRECTION('',(0.,1.,0.));
#1574=DIRECTION('',(-0.85845390507748,0.,0.512890722139935));
#1575=DIRECTION('',(0.512890722139935,0.,0.85845390507748));
#1576=DIRECTION('',(0.512890722139935,0.,0.85845390507748));
#1577=DIRECTION('',(0.512890722139935,0.,0.85845390507748));
#1578=DIRECTION('',(0.,1.,0.));
#1579=DIRECTION('',(-1.,0.,4.06763620909984E-16));
#1580=DIRECTION('',(4.06763620909984E-16,0.,1.));
#1581=DIRECTION('',(4.06763620909984E-16,0.,1.));
#1582=DIRECTION('',(4.06763620909984E-16,0.,1.));
#1583=DIRECTION('',(0.,1.,0.));
#1584=DIRECTION('',(0.,1.,0.));
#1585=DIRECTION('',(0.,0.,1.));
#1586=DIRECTION('',(0.,1.,0.));
#1587=DIRECTION('',(1.,0.,0.));
#1588=DIRECTION('',(0.,1.,0.));
#1589=DIRECTION('',(1.,0.,0.));
#1590=DIRECTION('',(0.,1.,0.));
#1591=DIRECTION('',(0.,0.,1.));
#1592=DIRECTION('',(1.,0.,0.));
#1593=DIRECTION('',(1.,0.,0.));
#1594=DIRECTION('',(1.,0.,0.));
#1595=DIRECTION('',(0.,1.,0.));
#1596=DIRECTION('',(0.,1.,0.));
#1597=DIRECTION('',(0.,0.,1.));
#1598=DIRECTION('',(0.,1.,0.));
#1599=DIRECTION('',(-1.,0.,0.));
#1600=DIRECTION('',(0.,1.,0.));
#1601=DIRECTION('',(-1.,0.,0.));
#1602=DIRECTION('',(0.,1.,0.));
#1603=DIRECTION('',(1.,0.,0.));
#1604=DIRECTION('',(0.,0.,-1.));
#1605=DIRECTION('',(0.,0.,-1.));
#1606=DIRECTION('',(0.,0.,-1.));
#1607=DIRECTION('',(0.,1.,0.));
#1608=DIRECTION('',(0.858453905077481,0.,0.512890722139935));
#1609=DIRECTION('',(0.512890722139935,0.,-0.858453905077481));
#1610=DIRECTION('',(0.512890722139935,0.,-0.858453905077481));
#1611=DIRECTION('',(0.512890722139935,0.,-0.858453905077481));
#1612=DIRECTION('',(0.,1.,0.));
#1613=DIRECTION('',(4.69158231023613E-16,0.,1.));
#1614=DIRECTION('',(1.,0.,-4.69158231023613E-16));
#1615=DIRECTION('',(1.,0.,-4.69158231023613E-16));
#1616=DIRECTION('',(1.,0.,-4.69158231023613E-16));
#1617=DIRECTION('',(0.,1.,0.));
#1618=DIRECTION('',(-0.858453905077481,0.,0.512890722139935));
#1619=DIRECTION('',(0.512890722139935,0.,0.858453905077481));
#1620=DIRECTION('',(0.512890722139935,0.,0.858453905077481));
#1621=DIRECTION('',(0.512890722139935,0.,0.858453905077481));
#1622=DIRECTION('',(0.,1.,0.));
#1623=DIRECTION('',(-1.,0.,5.42351494546646E-16));
#1624=DIRECTION('',(5.42351494546646E-16,0.,1.));
#1625=DIRECTION('',(5.42351494546646E-16,0.,1.));
#1626=DIRECTION('',(5.42351494546646E-16,0.,1.));
#1627=DIRECTION('',(0.,1.,0.));
#1628=DIRECTION('',(0.,1.,0.));
#1629=DIRECTION('',(0.,0.,1.));
#1630=DIRECTION('',(0.,1.,0.));
#1631=DIRECTION('',(1.,0.,0.));
#1632=DIRECTION('',(0.,1.,0.));
#1633=DIRECTION('',(1.,0.,0.));
#1634=DIRECTION('',(0.,1.,0.));
#1635=DIRECTION('',(0.,0.,1.));
#1636=DIRECTION('',(1.,0.,0.));
#1637=DIRECTION('',(1.,0.,0.));
#1638=DIRECTION('',(1.,0.,0.));
#1639=DIRECTION('',(0.,1.,0.));
#1640=DIRECTION('',(0.,0.,1.));
#1641=DIRECTION('',(0.,1.,0.));
#1642=DIRECTION('',(0.,0.,1.));
#1643=CARTESIAN_POINT('',(0.,0.,0.));
#1644=CARTESIAN_POINT('',(36.0878009559123,-20.,33.75));
#1645=CARTESIAN_POINT('',(36.0878009559123,20.,33.75));
#1646=CARTESIAN_POINT('',(36.0878009559123,20.,35.));
#1647=CARTESIAN_POINT('',(37.3378009559123,20.,33.75));
#1648=CARTESIAN_POINT('',(36.0878009559123,-20.,35.));
#1649=CARTESIAN_POINT('',(36.0878009559123,-20.,35.));
#1650=CARTESIAN_POINT('',(36.0878009559123,-20.,33.75));
#1651=CARTESIAN_POINT('',(37.3378009559123,-20.,33.75));
#1652=CARTESIAN_POINT('',(37.3378009559123,-20.,33.75));
#1653=CARTESIAN_POINT('',(37.3378009559123,-20.,33.75));
#1654=CARTESIAN_POINT('',(37.3378009559123,20.,33.75));
#1655=CARTESIAN_POINT('',(37.3378009559123,20.,8.16181973801884));
#1656=CARTESIAN_POINT('',(37.3378009559123,-20.,33.75));
#1657=CARTESIAN_POINT('',(37.3378009559123,-20.,8.16181973801884));
#1658=CARTESIAN_POINT('',(37.3378009559123,-20.,8.16181973801884));
#1659=CARTESIAN_POINT('',(37.3378009559123,-20.,8.16181973801884));
#1660=CARTESIAN_POINT('',(37.3378009559123,20.,8.16181973801884));
#1661=CARTESIAN_POINT('',(39.,20.,5.37970417457174));
#1662=CARTESIAN_POINT('',(37.3378009559123,-20.,8.16181973801884));
#1663=CARTESIAN_POINT('',(39.,-20.,5.37970417457174));
#1664=CARTESIAN_POINT('',(39.,-20.,5.37970417457174));
#1665=CARTESIAN_POINT('',(39.,-20.,5.37970417457174));
#1666=CARTESIAN_POINT('',(39.,20.,5.37970417457174));
#1667=CARTESIAN_POINT('',(39.,20.,1.21430643318376E-14));
#1668=CARTESIAN_POINT('',(39.,-20.,5.37970417457174));
#1669=CARTESIAN_POINT('',(39.,-20.,1.21430643318376E-14));
#1670=CARTESIAN_POINT('',(39.,-20.,1.21430643318376E-14));
#1671=CARTESIAN_POINT('',(39.,-20.,1.22412346258914E-14));
#1672=CARTESIAN_POINT('',(39.,20.,1.22412346258914E-14));
#1673=CARTESIAN_POINT('',(-39.,20.,-3.49749560739756E-15));
#1674=CARTESIAN_POINT('',(39.,-20.,1.22412346258914E-14));
#1675=CARTESIAN_POINT('',(-39.,-20.,-3.49749560739756E-15));
#1676=CARTESIAN_POINT('',(-39.,-20.,-3.49749560739756E-15));
#1677=CARTESIAN_POINT('',(-39.,-20.,-3.49749560739756E-15));
#1678=CARTESIAN_POINT('',(-39.,20.,-3.49749560739756E-15));
#1679=CARTESIAN_POINT('',(-39.,20.,5.37970417457175));
#1680=CARTESIAN_POINT('',(-39.,-20.,-3.49749560739756E-15));
#1681=CARTESIAN_POINT('',(-39.,-20.,5.37970417457175));
#1682=CARTESIAN_POINT('',(-39.,-20.,5.37970417457175));
#1683=CARTESIAN_POINT('',(-37.3378009559123,-20.,8.16181973801884));
#1684=CARTESIAN_POINT('',(-37.3378009559123,20.,8.16181973801884));
#1685=CARTESIAN_POINT('',(-37.3378009559123,20.,8.16181973801884));
#1686=CARTESIAN_POINT('',(-37.3378009559123,-20.,8.16181973801884));
#1687=CARTESIAN_POINT('',(-37.3378009559123,-20.,8.16181973801884));
#1688=CARTESIAN_POINT('',(-37.3378009559123,-20.,8.16181973801884));
#1689=CARTESIAN_POINT('',(-37.3378009559123,-20.,33.75));
#1690=CARTESIAN_POINT('',(-37.3378009559123,20.,33.75));
#1691=CARTESIAN_POINT('',(-37.3378009559123,20.,33.75));
#1692=CARTESIAN_POINT('',(-37.3378009559123,-20.,33.75));
#1693=CARTESIAN_POINT('',(-37.3378009559123,-20.,33.75));
#1694=CARTESIAN_POINT('',(-37.3378009559123,-20.,33.75));
#1695=CARTESIAN_POINT('',(-36.0878009559123,-20.,33.75));
#1696=CARTESIAN_POINT('',(-36.0878009559123,20.,33.75));
#1697=CARTESIAN_POINT('',(-36.0878009559123,20.,35.));
#1698=CARTESIAN_POINT('',(-36.0878009559123,-20.,33.75));
#1699=CARTESIAN_POINT('',(-36.0878009559123,-20.,35.));
#1700=CARTESIAN_POINT('',(-36.0878009559123,-20.,35.));
#1701=CARTESIAN_POINT('',(-35.9121990440877,-20.,35.));
#1702=CARTESIAN_POINT('',(-35.9121990440877,20.,35.));
#1703=CARTESIAN_POINT('',(-35.9121990440877,20.,35.));
#1704=CARTESIAN_POINT('',(-36.0878009559123,-20.,35.));
#1705=CARTESIAN_POINT('',(-35.9121990440877,-20.,35.));
#1706=CARTESIAN_POINT('',(-35.9121990440877,-20.,35.));
#1707=CARTESIAN_POINT('',(-35.9121990440877,-20.,33.75));
#1708=CARTESIAN_POINT('',(-35.9121990440877,20.,33.75));
#1709=CARTESIAN_POINT('',(-34.6621990440877,20.,33.75));
#1710=CARTESIAN_POINT('',(-35.9121990440877,-20.,33.75));
#1711=CARTESIAN_POINT('',(-34.6621990440877,-20.,33.75));
#1712=CARTESIAN_POINT('',(-34.6621990440877,-20.,33.75));
#1713=CARTESIAN_POINT('',(-34.6621990440877,-20.,33.75));
#1714=CARTESIAN_POINT('',(-34.6621990440877,20.,33.75));
#1715=CARTESIAN_POINT('',(-34.6621990440877,20.,8.16181973801884));
#1716=CARTESIAN_POINT('',(-34.6621990440877,-20.,33.75));
#1717=CARTESIAN_POINT('',(-34.6621990440877,-20.,8.16181973801884));
#1718=CARTESIAN_POINT('',(-34.6621990440877,-20.,8.16181973801884));
#1719=CARTESIAN_POINT('',(-34.6621990440877,-20.,8.16181973801884));
#1720=CARTESIAN_POINT('',(-34.6621990440877,20.,8.16181973801884));
#1721=CARTESIAN_POINT('',(-32.7731424516287,20.,4.99999999999998));
#1722=CARTESIAN_POINT('',(-34.6621990440877,-20.,8.16181973801884));
#1723=CARTESIAN_POINT('',(-32.7731424516287,-20.,4.99999999999998));
#1724=CARTESIAN_POINT('',(-32.7731424516287,-20.,4.99999999999998));
#1725=CARTESIAN_POINT('',(-27.2268575483713,-20.,4.99999999999998));
#1726=CARTESIAN_POINT('',(-27.2268575483713,20.,4.99999999999998));
#1727=CARTESIAN_POINT('',(-27.2268575483713,20.,4.99999999999998));
#1728=CARTESIAN_POINT('',(-27.2268575483713,-20.,4.99999999999998));
#1729=CARTESIAN_POINT('',(-27.2268575483713,-20.,4.99999999999998));
#1730=CARTESIAN_POINT('',(-27.2268575483713,-20.,4.99999999999998));
#1731=CARTESIAN_POINT('',(-25.3378009559123,-20.,8.16181973801885));
#1732=CARTESIAN_POINT('',(-25.3378009559123,20.,8.16181973801885));
#1733=CARTESIAN_POINT('',(-25.3378009559123,20.,8.16181973801885));
#1734=CARTESIAN_POINT('',(-25.3378009559123,-20.,8.16181973801885));
#1735=CARTESIAN_POINT('',(-25.3378009559123,-20.,8.16181973801885));
#1736=CARTESIAN_POINT('',(-25.3378009559123,-20.,8.16181973801885));
#1737=CARTESIAN_POINT('',(-25.3378009559123,-20.,33.75));
#1738=CARTESIAN_POINT('',(-25.3378009559123,20.,33.75));
#1739=CARTESIAN_POINT('',(-25.3378009559123,20.,33.75));
#1740=CARTESIAN_POINT('',(-25.3378009559123,-20.,33.75));
#1741=CARTESIAN_POINT('',(-25.3378009559123,-20.,33.75));
#1742=CARTESIAN_POINT('',(-25.3378009559123,-20.,33.75));
#1743=CARTESIAN_POINT('',(-24.0878009559123,-20.,33.75));
#1744=CARTESIAN_POINT('',(-24.0878009559123,20.,33.75));
#1745=CARTESIAN_POINT('',(-24.0878009559123,20.,35.));
#1746=CARTESIAN_POINT('',(-24.0878009559123,-20.,33.75));
#1747=CARTESIAN_POINT('',(-24.0878009559123,-20.,35.));
#1748=CARTESIAN_POINT('',(-24.0878009559123,-20.,35.));
#1749=CARTESIAN_POINT('',(-23.9121990440877,-20.,35.));
#1750=CARTESIAN_POINT('',(-23.9121990440877,20.,35.));
#1751=CARTESIAN_POINT('',(-23.9121990440877,20.,35.));
#1752=CARTESIAN_POINT('',(-24.0878009559123,-20.,35.));
#1753=CARTESIAN_POINT('',(-23.9121990440877,-20.,35.));
#1754=CARTESIAN_POINT('',(-23.9121990440877,-20.,35.));
#1755=CARTESIAN_POINT('',(-23.9121990440877,-20.,33.75));
#1756=CARTESIAN_POINT('',(-23.9121990440877,20.,33.75));
#1757=CARTESIAN_POINT('',(-22.6621990440877,20.,33.75));
#1758=CARTESIAN_POINT('',(-23.9121990440877,-20.,33.75));
#1759=CARTESIAN_POINT('',(-22.6621990440877,-20.,33.75));
#1760=CARTESIAN_POINT('',(-22.6621990440877,-20.,33.75));
#1761=CARTESIAN_POINT('',(-22.6621990440877,-20.,33.75));
#1762=CARTESIAN_POINT('',(-22.6621990440877,20.,33.75));
#1763=CARTESIAN_POINT('',(-22.6621990440877,20.,8.16181973801885));
#1764=CARTESIAN_POINT('',(-22.6621990440877,-20.,33.75));
#1765=CARTESIAN_POINT('',(-22.6621990440877,-20.,8.16181973801885));
#1766=CARTESIAN_POINT('',(-22.6621990440877,-20.,8.16181973801885));
#1767=CARTESIAN_POINT('',(-22.6621990440877,-20.,8.16181973801885));
#1768=CARTESIAN_POINT('',(-22.6621990440877,20.,8.16181973801885));
#1769=CARTESIAN_POINT('',(-20.7731424516287,20.,4.99999999999999));
#1770=CARTESIAN_POINT('',(-22.6621990440877,-20.,8.16181973801885));
#1771=CARTESIAN_POINT('',(-20.7731424516287,-20.,4.99999999999999));
#1772=CARTESIAN_POINT('',(-20.7731424516287,-20.,4.99999999999999));
#1773=CARTESIAN_POINT('',(-15.2268575483713,-20.,4.99999999999999));
#1774=CARTESIAN_POINT('',(-15.2268575483713,20.,4.99999999999999));
#1775=CARTESIAN_POINT('',(-15.2268575483713,20.,4.99999999999999));
#1776=CARTESIAN_POINT('',(-15.2268575483713,-20.,4.99999999999999));
#1777=CARTESIAN_POINT('',(-15.2268575483713,-20.,4.99999999999999));
#1778=CARTESIAN_POINT('',(-15.2268575483713,-20.,4.99999999999999));
#1779=CARTESIAN_POINT('',(-13.3378009559123,-20.,8.16181973801885));
#1780=CARTESIAN_POINT('',(-13.3378009559123,20.,8.16181973801885));
#1781=CARTESIAN_POINT('',(-13.3378009559123,20.,8.16181973801885));
#1782=CARTESIAN_POINT('',(-13.3378009559123,-20.,8.16181973801885));
#1783=CARTESIAN_POINT('',(-13.3378009559123,-20.,8.16181973801885));
#1784=CARTESIAN_POINT('',(-13.3378009559123,-20.,8.16181973801885));
#1785=CARTESIAN_POINT('',(-13.3378009559123,-20.,33.75));
#1786=CARTESIAN_POINT('',(-13.3378009559123,20.,33.75));
#1787=CARTESIAN_POINT('',(-13.3378009559123,20.,33.75));
#1788=CARTESIAN_POINT('',(-13.3378009559123,-20.,33.75));
#1789=CARTESIAN_POINT('',(-13.3378009559123,-20.,33.75));
#1790=CARTESIAN_POINT('',(-13.3378009559123,-20.,33.75));
#1791=CARTESIAN_POINT('',(-12.0878009559123,-20.,33.75));
#1792=CARTESIAN_POINT('',(-12.0878009559123,20.,33.75));
#1793=CARTESIAN_POINT('',(-12.0878009559123,20.,35.));
#1794=CARTESIAN_POINT('',(-12.0878009559123,-20.,33.75));
#1795=CARTESIAN_POINT('',(-12.0878009559123,-20.,35.));
#1796=CARTESIAN_POINT('',(-12.0878009559123,-20.,35.));
#1797=CARTESIAN_POINT('',(-11.9121990440877,-20.,35.));
#1798=CARTESIAN_POINT('',(-11.9121990440877,20.,35.));
#1799=CARTESIAN_POINT('',(-11.9121990440877,20.,35.));
#1800=CARTESIAN_POINT('',(-12.0878009559123,-20.,35.));
#1801=CARTESIAN_POINT('',(-11.9121990440877,-20.,35.));
#1802=CARTESIAN_POINT('',(-11.9121990440877,-20.,35.));
#1803=CARTESIAN_POINT('',(-11.9121990440877,-20.,33.75));
#1804=CARTESIAN_POINT('',(-11.9121990440877,20.,33.75));
#1805=CARTESIAN_POINT('',(-10.6621990440877,20.,33.75));
#1806=CARTESIAN_POINT('',(-11.9121990440877,-20.,33.75));
#1807=CARTESIAN_POINT('',(-10.6621990440877,-20.,33.75));
#1808=CARTESIAN_POINT('',(-10.6621990440877,-20.,33.75));
#1809=CARTESIAN_POINT('',(-10.6621990440877,-20.,33.75));
#1810=CARTESIAN_POINT('',(-10.6621990440877,20.,33.75));
#1811=CARTESIAN_POINT('',(-10.6621990440877,20.,8.16181973801885));
#1812=CARTESIAN_POINT('',(-10.6621990440877,-20.,33.75));
#1813=CARTESIAN_POINT('',(-10.6621990440877,-20.,8.16181973801885));
#1814=CARTESIAN_POINT('',(-10.6621990440877,-20.,8.16181973801885));
#1815=CARTESIAN_POINT('',(-10.6621990440877,-20.,8.16181973801885));
#1816=CARTESIAN_POINT('',(-10.6621990440877,20.,8.16181973801885));
#1817=CARTESIAN_POINT('',(-8.77314245162869,20.,4.99999999999999));
#1818=CARTESIAN_POINT('',(-10.6621990440877,-20.,8.16181973801885));
#1819=CARTESIAN_POINT('',(-8.77314245162869,-20.,4.99999999999999));
#1820=CARTESIAN_POINT('',(-8.77314245162869,-20.,4.99999999999999));
#1821=CARTESIAN_POINT('',(-3.22685754837131,-20.,5.));
#1822=CARTESIAN_POINT('',(-3.22685754837131,20.,5.));
#1823=CARTESIAN_POINT('',(-3.22685754837131,20.,5.));
#1824=CARTESIAN_POINT('',(-3.22685754837131,-20.,5.));
#1825=CARTESIAN_POINT('',(-3.22685754837131,-20.,5.));
#1826=CARTESIAN_POINT('',(-3.22685754837131,-20.,5.));
#1827=CARTESIAN_POINT('',(-1.33780095591229,-20.,8.16181973801886));
#1828=CARTESIAN_POINT('',(-1.33780095591229,20.,8.16181973801886));
#1829=CARTESIAN_POINT('',(-1.33780095591229,20.,8.16181973801886));
#1830=CARTESIAN_POINT('',(-1.33780095591229,-20.,8.16181973801886));
#1831=CARTESIAN_POINT('',(-1.33780095591229,-20.,8.16181973801886));
#1832=CARTESIAN_POINT('',(-1.33780095591229,-20.,8.16181973801886));
#1833=CARTESIAN_POINT('',(-1.33780095591229,-20.,33.75));
#1834=CARTESIAN_POINT('',(-1.33780095591229,20.,33.75));
#1835=CARTESIAN_POINT('',(-1.33780095591229,20.,33.75));
#1836=CARTESIAN_POINT('',(-1.33780095591229,-20.,33.75));
#1837=CARTESIAN_POINT('',(-1.33780095591229,-20.,33.75));
#1838=CARTESIAN_POINT('',(-1.33780095591229,-20.,33.75));
#1839=CARTESIAN_POINT('',(-0.0878009559122928,-20.,33.75));
#1840=CARTESIAN_POINT('',(-0.0878009559122928,20.,33.75));
#1841=CARTESIAN_POINT('',(-0.087800955912293,20.,35.));
#1842=CARTESIAN_POINT('',(-0.0878009559122928,-20.,33.75));
#1843=CARTESIAN_POINT('',(-0.087800955912293,-20.,35.));
#1844=CARTESIAN_POINT('',(-0.087800955912293,-20.,35.));
#1845=CARTESIAN_POINT('',(0.0878009559122928,-20.,35.));
#1846=CARTESIAN_POINT('',(0.0878009559122928,20.,35.));
#1847=CARTESIAN_POINT('',(0.0878009559122928,20.,35.));
#1848=CARTESIAN_POINT('',(-0.0878009559122928,-20.,35.));
#1849=CARTESIAN_POINT('',(0.0878009559122928,-20.,35.));
#1850=CARTESIAN_POINT('',(0.0878009559122928,-20.,35.));
#1851=CARTESIAN_POINT('',(0.0878009559122928,-20.,33.75));
#1852=CARTESIAN_POINT('',(0.0878009559122928,20.,33.75));
#1853=CARTESIAN_POINT('',(1.33780095591229,20.,33.75));
#1854=CARTESIAN_POINT('',(0.0878009559122928,-20.,33.75));
#1855=CARTESIAN_POINT('',(1.33780095591229,-20.,33.75));
#1856=CARTESIAN_POINT('',(1.33780095591229,-20.,33.75));
#1857=CARTESIAN_POINT('',(1.33780095591229,-20.,33.75));
#1858=CARTESIAN_POINT('',(1.33780095591229,20.,33.75));
#1859=CARTESIAN_POINT('',(1.33780095591229,20.,8.16181973801886));
#1860=CARTESIAN_POINT('',(1.33780095591229,-20.,33.75));
#1861=CARTESIAN_POINT('',(1.33780095591229,-20.,8.16181973801886));
#1862=CARTESIAN_POINT('',(1.33780095591229,-20.,8.16181973801886));
#1863=CARTESIAN_POINT('',(1.33780095591229,-20.,8.16181973801886));
#1864=CARTESIAN_POINT('',(1.33780095591229,20.,8.16181973801886));
#1865=CARTESIAN_POINT('',(3.22685754837131,20.,5.));
#1866=CARTESIAN_POINT('',(1.33780095591229,-20.,8.16181973801886));
#1867=CARTESIAN_POINT('',(3.22685754837131,-20.,5.));
#1868=CARTESIAN_POINT('',(3.22685754837131,-20.,5.));
#1869=CARTESIAN_POINT('',(3.22685754837131,-20.,5.));
#1870=CARTESIAN_POINT('',(3.22685754837131,20.,5.));
#1871=CARTESIAN_POINT('',(8.77314245162869,20.,4.99999999999999));
#1872=CARTESIAN_POINT('',(3.22685754837131,-20.,5.));
#1873=CARTESIAN_POINT('',(8.77314245162869,-20.,4.99999999999999));
#1874=CARTESIAN_POINT('',(8.77314245162869,-20.,4.99999999999999));
#1875=CARTESIAN_POINT('',(10.6621990440877,-20.,8.16181973801885));
#1876=CARTESIAN_POINT('',(10.6621990440877,20.,8.16181973801885));
#1877=CARTESIAN_POINT('',(10.6621990440877,20.,8.16181973801885));
#1878=CARTESIAN_POINT('',(10.6621990440877,-20.,8.16181973801885));
#1879=CARTESIAN_POINT('',(10.6621990440877,-20.,8.16181973801885));
#1880=CARTESIAN_POINT('',(10.6621990440877,-20.,8.16181973801885));
#1881=CARTESIAN_POINT('',(10.6621990440877,-20.,33.75));
#1882=CARTESIAN_POINT('',(10.6621990440877,20.,33.75));
#1883=CARTESIAN_POINT('',(10.6621990440877,20.,33.75));
#1884=CARTESIAN_POINT('',(10.6621990440877,-20.,33.75));
#1885=CARTESIAN_POINT('',(10.6621990440877,-20.,33.75));
#1886=CARTESIAN_POINT('',(10.6621990440877,-20.,33.75));
#1887=CARTESIAN_POINT('',(11.9121990440877,-20.,33.75));
#1888=CARTESIAN_POINT('',(11.9121990440877,20.,33.75));
#1889=CARTESIAN_POINT('',(11.9121990440877,20.,35.));
#1890=CARTESIAN_POINT('',(11.9121990440877,-20.,33.75));
#1891=CARTESIAN_POINT('',(11.9121990440877,-20.,35.));
#1892=CARTESIAN_POINT('',(11.9121990440877,-20.,35.));
#1893=CARTESIAN_POINT('',(12.0878009559123,-20.,35.));
#1894=CARTESIAN_POINT('',(12.0878009559123,20.,35.));
#1895=CARTESIAN_POINT('',(12.0878009559123,20.,35.));
#1896=CARTESIAN_POINT('',(11.9121990440877,-20.,35.));
#1897=CARTESIAN_POINT('',(12.0878009559123,-20.,35.));
#1898=CARTESIAN_POINT('',(12.0878009559123,-20.,35.));
#1899=CARTESIAN_POINT('',(12.0878009559123,-20.,33.75));
#1900=CARTESIAN_POINT('',(12.0878009559123,20.,33.75));
#1901=CARTESIAN_POINT('',(13.3378009559123,20.,33.75));
#1902=CARTESIAN_POINT('',(12.0878009559123,-20.,33.75));
#1903=CARTESIAN_POINT('',(13.3378009559123,-20.,33.75));
#1904=CARTESIAN_POINT('',(13.3378009559123,-20.,33.75));
#1905=CARTESIAN_POINT('',(13.3378009559123,-20.,33.75));
#1906=CARTESIAN_POINT('',(13.3378009559123,20.,33.75));
#1907=CARTESIAN_POINT('',(13.3378009559123,20.,8.16181973801885));
#1908=CARTESIAN_POINT('',(13.3378009559123,-20.,33.75));
#1909=CARTESIAN_POINT('',(13.3378009559123,-20.,8.16181973801885));
#1910=CARTESIAN_POINT('',(13.3378009559123,-20.,8.16181973801885));
#1911=CARTESIAN_POINT('',(13.3378009559123,-20.,8.16181973801885));
#1912=CARTESIAN_POINT('',(13.3378009559123,20.,8.16181973801885));
#1913=CARTESIAN_POINT('',(15.2268575483713,20.,4.99999999999999));
#1914=CARTESIAN_POINT('',(13.3378009559123,-20.,8.16181973801885));
#1915=CARTESIAN_POINT('',(15.2268575483713,-20.,4.99999999999999));
#1916=CARTESIAN_POINT('',(15.2268575483713,-20.,4.99999999999999));
#1917=CARTESIAN_POINT('',(15.2268575483713,-20.,4.99999999999999));
#1918=CARTESIAN_POINT('',(15.2268575483713,20.,4.99999999999999));
#1919=CARTESIAN_POINT('',(20.7731424516287,20.,4.99999999999999));
#1920=CARTESIAN_POINT('',(15.2268575483713,-20.,4.99999999999999));
#1921=CARTESIAN_POINT('',(20.7731424516287,-20.,4.99999999999999));
#1922=CARTESIAN_POINT('',(20.7731424516287,-20.,4.99999999999999));
#1923=CARTESIAN_POINT('',(22.6621990440877,-20.,8.16181973801885));
#1924=CARTESIAN_POINT('',(22.6621990440877,20.,8.16181973801885));
#1925=CARTESIAN_POINT('',(22.6621990440877,20.,8.16181973801885));
#1926=CARTESIAN_POINT('',(22.6621990440877,-20.,8.16181973801885));
#1927=CARTESIAN_POINT('',(22.6621990440877,-20.,8.16181973801885));
#1928=CARTESIAN_POINT('',(22.6621990440877,-20.,8.16181973801885));
#1929=CARTESIAN_POINT('',(22.6621990440877,-20.,33.75));
#1930=CARTESIAN_POINT('',(22.6621990440877,20.,33.75));
#1931=CARTESIAN_POINT('',(22.6621990440877,20.,33.75));
#1932=CARTESIAN_POINT('',(22.6621990440877,-20.,33.75));
#1933=CARTESIAN_POINT('',(22.6621990440877,-20.,33.75));
#1934=CARTESIAN_POINT('',(22.6621990440877,-20.,33.75));
#1935=CARTESIAN_POINT('',(23.9121990440877,-20.,33.75));
#1936=CARTESIAN_POINT('',(23.9121990440877,20.,33.75));
#1937=CARTESIAN_POINT('',(23.9121990440877,20.,35.));
#1938=CARTESIAN_POINT('',(23.9121990440877,-20.,33.75));
#1939=CARTESIAN_POINT('',(23.9121990440877,-20.,35.));
#1940=CARTESIAN_POINT('',(23.9121990440877,-20.,35.));
#1941=CARTESIAN_POINT('',(24.0878009559123,-20.,35.));
#1942=CARTESIAN_POINT('',(24.0878009559123,20.,35.));
#1943=CARTESIAN_POINT('',(24.0878009559123,20.,35.));
#1944=CARTESIAN_POINT('',(23.9121990440877,-20.,35.));
#1945=CARTESIAN_POINT('',(24.0878009559123,-20.,35.));
#1946=CARTESIAN_POINT('',(24.0878009559123,-20.,35.));
#1947=CARTESIAN_POINT('',(24.0878009559123,-20.,33.75));
#1948=CARTESIAN_POINT('',(24.0878009559123,20.,33.75));
#1949=CARTESIAN_POINT('',(25.3378009559123,20.,33.75));
#1950=CARTESIAN_POINT('',(24.0878009559123,-20.,33.75));
#1951=CARTESIAN_POINT('',(25.3378009559123,-20.,33.75));
#1952=CARTESIAN_POINT('',(25.3378009559123,-20.,33.75));
#1953=CARTESIAN_POINT('',(25.3378009559123,-20.,33.75));
#1954=CARTESIAN_POINT('',(25.3378009559123,20.,33.75));
#1955=CARTESIAN_POINT('',(25.3378009559123,20.,8.16181973801885));
#1956=CARTESIAN_POINT('',(25.3378009559123,-20.,33.75));
#1957=CARTESIAN_POINT('',(25.3378009559123,-20.,8.16181973801885));
#1958=CARTESIAN_POINT('',(25.3378009559123,-20.,8.16181973801885));
#1959=CARTESIAN_POINT('',(25.3378009559123,-20.,8.16181973801885));
#1960=CARTESIAN_POINT('',(25.3378009559123,20.,8.16181973801885));
#1961=CARTESIAN_POINT('',(27.2268575483713,20.,4.99999999999998));
#1962=CARTESIAN_POINT('',(25.3378009559123,-20.,8.16181973801885));
#1963=CARTESIAN_POINT('',(27.2268575483713,-20.,4.99999999999998));
#1964=CARTESIAN_POINT('',(27.2268575483713,-20.,4.99999999999998));
#1965=CARTESIAN_POINT('',(27.2268575483713,-20.,4.99999999999998));
#1966=CARTESIAN_POINT('',(27.2268575483713,20.,4.99999999999998));
#1967=CARTESIAN_POINT('',(32.7731424516287,20.,4.99999999999998));
#1968=CARTESIAN_POINT('',(27.2268575483713,-20.,4.99999999999998));
#1969=CARTESIAN_POINT('',(32.7731424516287,-20.,4.99999999999998));
#1970=CARTESIAN_POINT('',(32.7731424516287,-20.,4.99999999999998));
#1971=CARTESIAN_POINT('',(34.6621990440877,-20.,8.16181973801884));
#1972=CARTESIAN_POINT('',(34.6621990440877,20.,8.16181973801884));
#1973=CARTESIAN_POINT('',(34.6621990440877,20.,8.16181973801884));
#1974=CARTESIAN_POINT('',(34.6621990440877,-20.,8.16181973801884));
#1975=CARTESIAN_POINT('',(34.6621990440877,-20.,8.16181973801884));
#1976=CARTESIAN_POINT('',(34.6621990440877,-20.,8.16181973801884));
#1977=CARTESIAN_POINT('',(34.6621990440877,-20.,33.75));
#1978=CARTESIAN_POINT('',(34.6621990440877,20.,33.75));
#1979=CARTESIAN_POINT('',(34.6621990440877,20.,33.75));
#1980=CARTESIAN_POINT('',(34.6621990440877,-20.,33.75));
#1981=CARTESIAN_POINT('',(34.6621990440877,-20.,33.75));
#1982=CARTESIAN_POINT('',(34.6621990440877,-20.,33.75));
#1983=CARTESIAN_POINT('',(35.9121990440877,-20.,33.75));
#1984=CARTESIAN_POINT('',(35.9121990440877,20.,33.75));
#1985=CARTESIAN_POINT('',(35.9121990440877,20.,35.));
#1986=CARTESIAN_POINT('',(35.9121990440877,-20.,33.75));
#1987=CARTESIAN_POINT('',(35.9121990440877,-20.,35.));
#1988=CARTESIAN_POINT('',(35.9121990440877,-20.,35.));
#1989=CARTESIAN_POINT('',(36.0878009559123,-20.,35.));
#1990=CARTESIAN_POINT('',(36.0878009559123,20.,35.));
#1991=CARTESIAN_POINT('',(35.9121990440877,-20.,35.));
#1992=CARTESIAN_POINT('',(36.0878009559123,-20.,33.75));
#1993=CARTESIAN_POINT('',(36.0878009559123,20.,33.75));
#1994=MECHANICAL_DESIGN_GEOMETRIC_PRESENTATION_REPRESENTATION('',(#1219),
#1995);
#1995=(
GEOMETRIC_REPRESENTATION_CONTEXT(3)
GLOBAL_UNCERTAINTY_ASSIGNED_CONTEXT((#1996))
GLOBAL_UNIT_ASSIGNED_CONTEXT((#1999,#1998,#1997))
REPRESENTATION_CONTEXT('RAD-A5723_40','TOP_LEVEL_ASSEMBLY_PART')
);
#1996=UNCERTAINTY_MEASURE_WITH_UNIT(LENGTH_MEASURE(0.005),#1999,
'DISTANCE_ACCURACY_VALUE','Maximum Tolerance applied to model');
#1997=(
NAMED_UNIT(*)
SI_UNIT($,.STERADIAN.)
SOLID_ANGLE_UNIT()
);
#1998=(
NAMED_UNIT(*)
PLANE_ANGLE_UNIT()
SI_UNIT($,.RADIAN.)
);
#1999=(
LENGTH_UNIT()
NAMED_UNIT(*)
SI_UNIT(.MILLI.,.METRE.)
);
#2000=PRODUCT_DEFINITION_SHAPE('','',#2001);
#2001=PRODUCT_DEFINITION('','',#2003,#2002);
#2002=PRODUCT_DEFINITION_CONTEXT('',#2009,'design');
#2003=PRODUCT_DEFINITION_FORMATION_WITH_SPECIFIED_SOURCE('','',#2005,
 .NOT_KNOWN.);
#2004=PRODUCT_RELATED_PRODUCT_CATEGORY('','',(#2005));
#2005=PRODUCT('RAD-A5723_40','RAD-A5723_40','RAD-A5723_40',(#2007));
#2006=PRODUCT_CATEGORY('','');
#2007=PRODUCT_CONTEXT('',#2009,'mechanical');
#2008=APPLICATION_PROTOCOL_DEFINITION('international standard',
'automotive_design',2010,#2009);
#2009=APPLICATION_CONTEXT(
'core data for automotive mechanical design processes');
ENDSEC;
END-ISO-10303-21;
