<svg xmlns="http://www.w3.org/2000/svg" xml:space="preserve" width="1250" height="600" viewBox="0 0 1250 600" font-family="Lato, 'DejaVu Sans', sans-serif">
<defs><marker id="ab45309" viewBox="0 0 10 10" refX="9" refY="5" markerWidth="7" markerHeight="7" orient="auto-start-reverse"><path d="M0,0 L10,5 L0,10 z" fill="#b45309"/></marker><marker id="ac2410c" viewBox="0 0 10 10" refX="9" refY="5" markerWidth="7" markerHeight="7" orient="auto-start-reverse"><path d="M0,0 L10,5 L0,10 z" fill="#c2410c"/></marker><marker id="a1d4ed8" viewBox="0 0 10 10" refX="9" refY="5" markerWidth="7" markerHeight="7" orient="auto-start-reverse"><path d="M0,0 L10,5 L0,10 z" fill="#1d4ed8"/></marker><marker id="a374151" viewBox="0 0 10 10" refX="9" refY="5" markerWidth="7" markerHeight="7" orient="auto-start-reverse"><path d="M0,0 L10,5 L0,10 z" fill="#374151"/></marker><marker id="ab91c1c" viewBox="0 0 10 10" refX="9" refY="5" markerWidth="7" markerHeight="7" orient="auto-start-reverse"><path d="M0,0 L10,5 L0,10 z" fill="#b91c1c"/></marker></defs>
<rect width="100%" height="100%" fill="#ffffff"/>
<rect x="130" y="92" width="130.0" height="30" rx="3" fill="#fff4e5" stroke="#e9a24f" stroke-width="1.2" />
<text x="195.0" y="112" font-size="13" font-weight="700" text-anchor="middle" fill="#1f2937" >Warm-up 1–9 min</text>
<rect x="260.0" y="92" width="236.8" height="30" rx="3" fill="#eef2f7" stroke="#94a3b8" stroke-width="1.2" />
<text x="378.4" y="112" font-size="13" font-weight="700" text-anchor="middle" fill="#1f2937" >Power up</text>
<rect x="496.8" y="92" width="147.99999999999994" height="30" rx="3" fill="#e8f0fe" stroke="#6b93db" stroke-width="1.2" />
<text x="570.8" y="112" font-size="13" font-weight="700" text-anchor="middle" fill="#1f2937" >Measure S</text>
<rect x="644.8" y="92" width="266.4000000000001" height="30" rx="3" fill="#e8f0fe" stroke="#6b93db" stroke-width="1.2" />
<text x="778.0" y="112" font-size="13" font-weight="700" text-anchor="middle" fill="#1f2937" >Measure R</text>
<rect x="911.2" y="92" width="59.200000000000045" height="30" rx="3" fill="#e8f0fe" stroke="#6b93db" stroke-width="1.2" />
<text x="940.8000000000001" y="112" font-size="13" font-weight="700" text-anchor="middle" fill="#1f2937" >K</text>
<rect x="970.4000000000001" y="92" width="120.0" height="30" rx="3" fill="#eef2f7" stroke="#94a3b8" stroke-width="1.2" />
<text x="1030.4" y="112" font-size="13" font-weight="700" text-anchor="middle" fill="#1f2937" >Switch off</text>
<rect x="1090.4" y="92" width="60.0" height="30" rx="3" fill="#eef2f7" stroke="#94a3b8" stroke-width="1.2" />
<text x="1120.4" y="112" font-size="13" font-weight="700" text-anchor="middle" fill="#1f2937" >Beep</text>
<rect x="1150.4" y="92" width="15.0" height="30" rx="3" fill="#fde68a" stroke="#d97706" stroke-width="1.2" />
<rect x="1165.4" y="92" width="45.0" height="30" rx="3" fill="#eef2f7" stroke="#94a3b8" stroke-width="1.2" />
<text x="1187.9" y="112" font-size="13" font-weight="700" text-anchor="middle" fill="#1f2937" >Off</text>
<text x="1157.9" y="84" font-size="13" font-weight="700" text-anchor="middle" fill="#b45309" >Hold</text>
<path d="M1157.9,66 C1157.9,20 260.0,20 260.0,88" fill="none" stroke="#b45309" stroke-width="1.8" stroke-linejoin="round" stroke-linecap="round" marker-end="url(#ab45309)"/>
<text x="708.95" y="30" font-size="13" font-weight="400" text-anchor="middle" fill="#b45309" >click in Hold: re-measure, the heater is still warm</text>
<text x="20" y="176" font-size="15" font-weight="700" text-anchor="start" fill="#1f2937" >Heater</text>
<line x1="120" y1="190" x2="1220.4" y2="190" stroke="#e5e7eb" stroke-width="1"/>
<text x="20" y="236" font-size="15" font-weight="700" text-anchor="start" fill="#1f2937" >U<tspan dy="4.2" font-size="11.4">g1</tspan></text>
<line x1="120" y1="250" x2="1220.4" y2="250" stroke="#e5e7eb" stroke-width="1"/>
<text x="20" y="296" font-size="15" font-weight="700" text-anchor="start" fill="#1f2937" >U<tspan dy="4.2" font-size="11.4">a</tspan></text>
<line x1="120" y1="310" x2="1220.4" y2="310" stroke="#e5e7eb" stroke-width="1"/>
<text x="20" y="356" font-size="15" font-weight="700" text-anchor="start" fill="#1f2937" >U<tspan dy="4.2" font-size="11.4">g2</tspan></text>
<line x1="120" y1="370" x2="1220.4" y2="370" stroke="#e5e7eb" stroke-width="1"/>
<text x="20" y="416" font-size="15" font-weight="700" text-anchor="start" fill="#1f2937" >Readings</text>
<line x1="120" y1="430" x2="1220.4" y2="430" stroke="#e5e7eb" stroke-width="1"/>
<text x="20" y="466" font-size="15" font-weight="700" text-anchor="start" fill="#1f2937" >Buzzer</text>
<line x1="120" y1="480" x2="1220.4" y2="480" stroke="#e5e7eb" stroke-width="1"/>
<path d="M120,186 L130,186 L130,160 L1165.4,160 L1165.4,186 L1220.4,186" fill="none" stroke="#c2410c" stroke-width="2.2" stroke-linejoin="round" stroke-linecap="round"/>
<text x="1159.4" y="154" font-size="12" font-weight="400" text-anchor="end" fill="#6b7280" >off at step 3</text>
<path d="M120,246 L260.0,246 L260.0,230 L511.6,230 L511.6,216 L644.8,216 L644.8,223 L1060.4,223 L1060.4,246 L1220.4,246" fill="none" stroke="#1d4ed8" stroke-width="2.2" stroke-linejoin="round" stroke-linecap="round"/>
<text x="130" y="241" font-size="12" font-weight="400" text-anchor="start" fill="#6b7280" >−24 V</text>
<text x="385.8" y="225" font-size="12" font-weight="400" text-anchor="middle" fill="#6b7280" >U<tspan dy="3.4" font-size="9.1">g</tspan><tspan dy="-3.4"> − 0.4 V</tspan></text>
<text x="578.2" y="211" font-size="12" font-weight="400" text-anchor="middle" fill="#6b7280" >U<tspan dy="3.4" font-size="9.1">g</tspan><tspan dy="-3.4"> + 0.4 V</tspan></text>
<text x="778.0" y="218" font-size="12" font-weight="400" text-anchor="middle" fill="#6b7280" >U<tspan dy="3.4" font-size="9.1">g</tspan></text>
<path d="M120,306 L378.4,306 L400.6,283 L763.2,283 L763.2,290 L837.2,290 L837.2,276 L911.2,276 L911.2,283 L1030.4,283 L1045.4,306 L1220.4,306" fill="none" stroke="#1d4ed8" stroke-width="2.2" stroke-linejoin="round" stroke-linecap="round"/>
<text x="570.8" y="278" font-size="12" font-weight="400" text-anchor="middle" fill="#6b7280" >U<tspan dy="3.4" font-size="9.1">a</tspan></text>
<text x="800.2" y="306" font-size="12" font-weight="400" text-anchor="middle" fill="#6b7280" >−10 V</text>
<text x="874.2" y="271" font-size="12" font-weight="400" text-anchor="middle" fill="#6b7280" >+10 V</text>
<path d="M120,366 L437.6,366 L459.8,340 L1000.4000000000001,340 L1015.4000000000001,366 L1220.4,366" fill="none" stroke="#1d4ed8" stroke-width="2.2" stroke-linejoin="round" stroke-linecap="round"/>
<text x="719.0" y="335" font-size="12" font-weight="400" text-anchor="middle" fill="#6b7280" >U<tspan dy="3.4" font-size="9.1">g2</tspan></text>
<path d="M496.8,403 L503.8,410 L496.8,417 L489.8,410 z" fill="#c2410c"/>
<text x="507.8" y="415" font-size="13" font-weight="400" text-anchor="start" fill="#c2410c" >I<tspan dy="3.6" font-size="9.9">a</tspan><tspan dy="-3.6">, U</tspan><tspan dy="3.6" font-size="9.9">g1</tspan></text>
<path d="M630.0,403 L637.0,410 L630.0,417 L623.0,410 z" fill="#c2410c"/>
<text x="641.0" y="415" font-size="13" font-weight="400" text-anchor="start" fill="#c2410c" >I<tspan dy="3.6" font-size="9.9">a</tspan><tspan dy="-3.6">, U</tspan><tspan dy="3.6" font-size="9.9">g1</tspan><tspan dy="-3.6"> → S</tspan></text>
<path d="M822.4,403 L829.4,410 L822.4,417 L815.4,410 z" fill="#c2410c"/>
<text x="833.4" y="415" font-size="13" font-weight="400" text-anchor="start" fill="#c2410c" >I<tspan dy="3.6" font-size="9.9">a</tspan><tspan dy="-3.6">, U</tspan><tspan dy="3.6" font-size="9.9">a</tspan></text>
<path d="M896.4,403 L903.4,410 L896.4,417 L889.4,410 z" fill="#c2410c"/>
<text x="907.4" y="405" font-size="13" font-weight="400" text-anchor="start" fill="#c2410c" >→ R</text>
<path d="M911.2,403 L918.2,410 L911.2,417 L904.2,410 z" fill="#c2410c"/>
<text x="922.2" y="425" font-size="13" font-weight="400" text-anchor="start" fill="#c2410c" >K = S·R</text>
<path d="M970.4000000000001,403 L977.4000000000001,410 L970.4000000000001,417 L963.4000000000001,410 z" fill="#0f766e"/>
<text x="981.4000000000001" y="400" font-size="13" font-weight="400" text-anchor="start" fill="#0f766e" >latch: LCD,</text>
<text x="981.4000000000001" y="418" font-size="13" font-weight="400" text-anchor="start" fill="#0f766e" >RS-232 report</text>
<path d="M120,470 L1090.4,470 L1090.4,448 L1135.4,448 L1135.4,470 L1220.4,470" fill="none" stroke="#374151" stroke-width="2.2" stroke-linejoin="round" stroke-linecap="round"/>
<text x="1082.4" y="464" font-size="12" font-weight="400" text-anchor="end" fill="#6b7280" >one long beep; two short on error</text>
<line x1="260.0" y1="500" x2="1210.4" y2="500" stroke="#1f2937" stroke-width="1.4"/>
<line x1="260.0" y1="495" x2="260.0" y2="505" stroke="#1f2937" stroke-width="1.4"/>
<line x1="260.0" y1="122" x2="260.0" y2="495" stroke="#d1d5db" stroke-width="1" stroke-dasharray="2 4"/>
<text x="260.0" y="520" font-size="12" font-weight="400" text-anchor="middle" fill="#374151" >112</text>
<line x1="378.4" y1="495" x2="378.4" y2="505" stroke="#1f2937" stroke-width="1.4"/>
<line x1="378.4" y1="122" x2="378.4" y2="495" stroke="#d1d5db" stroke-width="1" stroke-dasharray="2 4"/>
<text x="378.4" y="520" font-size="12" font-weight="400" text-anchor="middle" fill="#374151" >96</text>
<line x1="437.6" y1="495" x2="437.6" y2="505" stroke="#1f2937" stroke-width="1.4"/>
<line x1="437.6" y1="122" x2="437.6" y2="495" stroke="#d1d5db" stroke-width="1" stroke-dasharray="2 4"/>
<text x="437.6" y="520" font-size="12" font-weight="400" text-anchor="middle" fill="#374151" >88</text>
<line x1="496.8" y1="495" x2="496.8" y2="505" stroke="#1f2937" stroke-width="1.4"/>
<line x1="496.8" y1="122" x2="496.8" y2="495" stroke="#d1d5db" stroke-width="1" stroke-dasharray="2 4"/>
<text x="496.8" y="520" font-size="12" font-weight="400" text-anchor="middle" fill="#374151" >80</text>
<line x1="511.6" y1="495" x2="511.6" y2="505" stroke="#1f2937" stroke-width="1.4"/>
<line x1="511.6" y1="122" x2="511.6" y2="495" stroke="#d1d5db" stroke-width="1" stroke-dasharray="2 4"/>
<text x="511.6" y="536" font-size="12" font-weight="400" text-anchor="middle" fill="#374151" >78</text>
<line x1="630.0" y1="495" x2="630.0" y2="505" stroke="#1f2937" stroke-width="1.4"/>
<line x1="630.0" y1="122" x2="630.0" y2="495" stroke="#d1d5db" stroke-width="1" stroke-dasharray="2 4"/>
<text x="630.0" y="520" font-size="12" font-weight="400" text-anchor="middle" fill="#374151" >62</text>
<line x1="644.8" y1="495" x2="644.8" y2="505" stroke="#1f2937" stroke-width="1.4"/>
<line x1="644.8" y1="122" x2="644.8" y2="495" stroke="#d1d5db" stroke-width="1" stroke-dasharray="2 4"/>
<text x="644.8" y="536" font-size="12" font-weight="400" text-anchor="middle" fill="#374151" >60</text>
<line x1="763.2" y1="495" x2="763.2" y2="505" stroke="#1f2937" stroke-width="1.4"/>
<line x1="763.2" y1="122" x2="763.2" y2="495" stroke="#d1d5db" stroke-width="1" stroke-dasharray="2 4"/>
<text x="763.2" y="520" font-size="12" font-weight="400" text-anchor="middle" fill="#374151" >44</text>
<line x1="822.4" y1="495" x2="822.4" y2="505" stroke="#1f2937" stroke-width="1.4"/>
<line x1="822.4" y1="122" x2="822.4" y2="495" stroke="#d1d5db" stroke-width="1" stroke-dasharray="2 4"/>
<text x="822.4" y="520" font-size="12" font-weight="400" text-anchor="middle" fill="#374151" >36</text>
<line x1="837.2" y1="495" x2="837.2" y2="505" stroke="#1f2937" stroke-width="1.4"/>
<line x1="837.2" y1="122" x2="837.2" y2="495" stroke="#d1d5db" stroke-width="1" stroke-dasharray="2 4"/>
<text x="837.2" y="536" font-size="12" font-weight="400" text-anchor="middle" fill="#374151" >34</text>
<line x1="896.4" y1="495" x2="896.4" y2="505" stroke="#1f2937" stroke-width="1.4"/>
<line x1="896.4" y1="122" x2="896.4" y2="495" stroke="#d1d5db" stroke-width="1" stroke-dasharray="2 4"/>
<text x="896.4" y="520" font-size="12" font-weight="400" text-anchor="middle" fill="#374151" >26</text>
<line x1="911.2" y1="495" x2="911.2" y2="505" stroke="#1f2937" stroke-width="1.4"/>
<line x1="911.2" y1="122" x2="911.2" y2="495" stroke="#d1d5db" stroke-width="1" stroke-dasharray="2 4"/>
<text x="911.2" y="536" font-size="12" font-weight="400" text-anchor="middle" fill="#374151" >24</text>
<line x1="970.4000000000001" y1="495" x2="970.4000000000001" y2="505" stroke="#1f2937" stroke-width="1.4"/>
<line x1="970.4000000000001" y1="122" x2="970.4000000000001" y2="495" stroke="#d1d5db" stroke-width="1" stroke-dasharray="2 4"/>
<text x="970.4000000000001" y="520" font-size="12" font-weight="400" text-anchor="middle" fill="#374151" >16</text>
<line x1="1000.4000000000001" y1="495" x2="1000.4000000000001" y2="505" stroke="#1f2937" stroke-width="1.4"/>
<line x1="1000.4000000000001" y1="122" x2="1000.4000000000001" y2="495" stroke="#d1d5db" stroke-width="1" stroke-dasharray="2 4"/>
<text x="1000.4000000000001" y="520" font-size="12" font-weight="400" text-anchor="middle" fill="#374151" >14</text>
<line x1="1030.4" y1="495" x2="1030.4" y2="505" stroke="#1f2937" stroke-width="1.4"/>
<line x1="1030.4" y1="122" x2="1030.4" y2="495" stroke="#d1d5db" stroke-width="1" stroke-dasharray="2 4"/>
<text x="1030.4" y="520" font-size="12" font-weight="400" text-anchor="middle" fill="#374151" >12</text>
<line x1="1060.4" y1="495" x2="1060.4" y2="505" stroke="#1f2937" stroke-width="1.4"/>
<line x1="1060.4" y1="122" x2="1060.4" y2="495" stroke="#d1d5db" stroke-width="1" stroke-dasharray="2 4"/>
<text x="1060.4" y="520" font-size="12" font-weight="400" text-anchor="middle" fill="#374151" >10</text>
<line x1="1090.4" y1="495" x2="1090.4" y2="505" stroke="#1f2937" stroke-width="1.4"/>
<line x1="1090.4" y1="122" x2="1090.4" y2="495" stroke="#d1d5db" stroke-width="1" stroke-dasharray="2 4"/>
<text x="1090.4" y="520" font-size="12" font-weight="400" text-anchor="middle" fill="#374151" >8</text>
<line x1="1150.4" y1="495" x2="1150.4" y2="505" stroke="#1f2937" stroke-width="1.4"/>
<line x1="1150.4" y1="122" x2="1150.4" y2="495" stroke="#d1d5db" stroke-width="1" stroke-dasharray="2 4"/>
<text x="1150.4" y="520" font-size="12" font-weight="400" text-anchor="middle" fill="#374151" >4</text>
<line x1="1165.4" y1="495" x2="1165.4" y2="505" stroke="#1f2937" stroke-width="1.4"/>
<line x1="1165.4" y1="122" x2="1165.4" y2="495" stroke="#d1d5db" stroke-width="1" stroke-dasharray="2 4"/>
<text x="1165.4" y="536" font-size="12" font-weight="400" text-anchor="middle" fill="#374151" >3</text>
<line x1="1195.4" y1="495" x2="1195.4" y2="505" stroke="#1f2937" stroke-width="1.4"/>
<line x1="1195.4" y1="122" x2="1195.4" y2="495" stroke="#d1d5db" stroke-width="1" stroke-dasharray="2 4"/>
<text x="1195.4" y="520" font-size="12" font-weight="400" text-anchor="middle" fill="#374151" >1</text>
<line x1="1210.4" y1="495" x2="1210.4" y2="505" stroke="#1f2937" stroke-width="1.4"/>
<line x1="1210.4" y1="122" x2="1210.4" y2="495" stroke="#d1d5db" stroke-width="1" stroke-dasharray="2 4"/>
<text x="1210.4" y="536" font-size="12" font-weight="400" text-anchor="middle" fill="#374151" >0</text>
<line x1="130" y1="500" x2="217.0" y2="500" stroke="#1f2937" stroke-width="1.4"/>
<line x1="233.0" y1="500" x2="260.0" y2="500" stroke="#1f2937" stroke-width="1.4"/>
<line x1="213.0" y1="508" x2="221.0" y2="492" stroke="#1f2937" stroke-width="1.4"/>
<line x1="229.0" y1="508" x2="237.0" y2="492" stroke="#1f2937" stroke-width="1.4"/>
<text x="20" y="505" font-size="15" font-weight="700" text-anchor="start" fill="#1f2937" >Step</text>
<text x="130" y="522" font-size="12" font-weight="700" text-anchor="start" fill="#374151" >click</text>
<line x1="130" y1="562" x2="130" y2="574" stroke="#b91c1c" stroke-width="1.8"/>
<path d="M130,568 L970.4000000000001,568 L970.4000000000001,527" fill="none" stroke="#b91c1c" stroke-width="1.8" stroke-linejoin="round" stroke-linecap="round" stroke-dasharray="6 4" marker-end="url(#ab91c1c)"/>
<text x="140" y="560" font-size="13" font-weight="400" text-anchor="start" fill="#b91c1c" >error or encoder turn: jump to step 16, then switch off (an error also stops the heater)</text>
<text x="982.4000000000001" y="573" font-size="12" font-weight="400" text-anchor="start" fill="#6b7280" >time runs right, 250 ms per step;</text>
<text x="982.4000000000001" y="589" font-size="12" font-weight="400" text-anchor="start" fill="#6b7280" >steps 16…0 drawn at 2× scale</text>
</svg>
